<svg id="Calque_1" data-name="Calque 1" xmlns="http://www.w3.org/2000/svg" viewBox="0 0 476.7 571.21"><defs><style>.cls-1{opacity:0.19;}.cls-2{fill:#913e15;}</style>
</defs><g id="fond" class="cls-1">
<path class="cls-2" d="M946.26,298.05a59.83,59.83,0,0,1-9.67,15.42c-5.12,5.72-11,7-17.84,4.86Q859.46,300,800.14,281.63c-18.4-5.7-37.21-6.9-56.34-6.35,11.26-6.32,23.16-10,35.38-12.76,43.14-9.72,83.14,3.33,122.53,20.55C916,289.3,930.27,295.23,946.26,298.05Z" transform="translate(-722.02 -254.4)"/>
<path class="cls-2" d="M904,674.8c25,3.08,49.74.88,74.16,5.68-6.86,11.07-4.27,22.95-.65,34.85,1,3.15,1.84,6.31,1.5,9.72-.29,2.82-1.42,5.12-4.16,4.74-15.89-2.23-32.67.15-46.74-11.47-8.07-6.66-13.12-15.5-17-25.48C908.75,686.64,906.23,680.52,904,674.8Z" transform="translate(-722.02 -254.4)"/>
<path class="cls-2" d="M899.75,665.43c21.57-12.61,40.47-26.28,61.8-34.83a55.61,55.61,0,0,1,38-1.8c4.92,1.51,4.54,6.69,3.18,10.22a197.59,197.59,0,0,1-10.79,23c-2.35,4.34-7.2,2.42-9.59.92-15.14-9.46-28.83-4.94-42.61,3.64-4.54,2.83-9.78,4.48-15.18,3.56C916.79,668.83,909.08,667.22,899.75,665.43Z" transform="translate(-722.02 -254.4)"/>
<path class="cls-2" d="M991,570.18c-2.39,0-2.5-1.16-2.87-2.18-6.15-16.88-14.47-21.16-30.76-16.59-5.66,1.59-10.53,4.67-15.52,7.65-3.54,2.11-6.77,6.8-11.29,2.87a18,18,0,0,1-6.28-17.31c2.4-14.11,10.9-20.12,26.84-19.2,18.51,1.07,36.29,18.05,39.83,38.18C991.29,565.7,991,567.94,991,570.18Z" transform="translate(-722.02 -254.4)"/><path class="cls-2" d="M942.53,669.59c10.73-4.49,21.14-11.34,33.44-4.23a22.14,22.14,0,0,0,12.9,3.35c1.28-.09,3.26-1.09,3.59,1.41.28,2.06-1.4,2.69-2.81,3.26a21.86,21.86,0,0,1-10.3,1.77q-18.3-1.7-36.6-3.34C942.67,671.07,942.6,670.33,942.53,669.59Z" transform="translate(-722.02 -254.4)"/><path class="cls-2" d="M949.31,562.89c5.67-6.12,11.48-7.33,17.38-8.14,2.06-.28,4.22.5,4.86,2.77.83,3-1.73,3.73-3.49,4.26C962.38,563.48,956.62,564.55,949.31,562.89Z" transform="translate(-722.02 -254.4)"/>
<path class="cls-2" d="M798.47,374.87c23.24-9.85,46.66-13.71,71-9.26,13.4,2.46,26.36,5.88,37.42,15.32a24.39,24.39,0,0,1,7.72,10.87c-29.37,3.41-58,15.73-87.67,3.69A71.75,71.75,0,0,1,798.47,374.87Z" transform="translate(-722.02 -254.4)"/><path class="cls-2" d="M915.76,380c-4.09-1.18-5.12-5.78-7.83-8.47-18.94-18.8-41.5-20.63-64.55-15.31-16,3.68-31.73,1.65-47.76,2.11a91.68,91.68,0,0,1,34.55-18.17c21-6,41.69-5.63,62.08,2.38C907.11,348.39,915.29,361.9,915.76,380Z" transform="translate(-722.02 -254.4)"/>
<path class="cls-2" d="M791.56,362.86H815.5C807.35,370.8,794.58,371,791.56,362.86Z" transform="translate(-722.02 -254.4)"/>
<path class="cls-2" d="M857.36,359.2c11.81-2.15,23,.33,33.73,5.93C879.85,363.12,868.7,360.45,857.36,359.2Z" transform="translate(-722.02 -254.4)"/>
<path class="cls-2" d="M790,369.11a35.61,35.61,0,0,1-18.16-9.79C777.6,361.65,784.58,360.71,790,369.11Z" transform="translate(-722.02 -254.4)"/></g><g id="traits">
<path class="cls-2" d="M722,281c28.6-17.7,59.12-27.69,92.08-26.54,25.93.9,50.83,8.07,74.81,18.58,19,8.31,37.72,17.19,58,21,4.81.91,4.76,2.68,2.87,6.17a151.6,151.6,0,0,1-8.47,14.49c-6.32,9-14.44,11.37-24.62,8.56C876,312,836.18,297.6,795.73,285.69c-20.26-6-41.13-8.18-62.24-4.82-4,.64-6.91,4.64-11.19,3.42Zm223.72,17.29c-16-2.81-30.29-8.74-44.55-15-39.39-17.22-79.39-30.28-122.53-20.56-12.22,2.75-24.12,6.45-35.38,12.77,19.13-.56,37.94.64,56.34,6.34q59.31,18.36,118.61,36.7c6.81,2.11,12.72.86,17.84-4.86A59.39,59.39,0,0,0,945.74,298.32Z" transform="translate(-722.02 -254.4)"/>
<path class="cls-2" d="M972.37,734c-11.82-.4-21.51-.11-31.12-2.84-19.81-5.64-29.64-21.68-36.62-41-1.65-4.54-3-9.23-4.79-13.68s-3.83-8.57-9.35-7.6c-1.42.25-3.34.22-3.62-1.91-.24-1.88,1.15-2.77,2.77-3.14,12.93-2.94,23.12-12.08,34.39-18.72,16.65-9.81,32.94-20.4,52.18-23,1.57-.21,3.5-.69,3-2.7-2.83-11.31,4.26-19.24,7.6-28.45.92-2.54,1.63-5.18,2.71-7.62,1.63-3.71,1.89-6.51-2.18-8.71-2.69-1.46-4.3-4.14-4.55-8-.28-4.24-2.68-7.45-6.66-10.25-.09,8.66-5.33,10.37-10.91,11-7.54.87-15.24,2.67-22.37-2.31-.54-.39-1.8.38-2.7.7-10.89,3.94-17.55.17-20.43-11.57-3.9-15.89,7.91-33.15,22.95-33.62,22.09-.68,38.71,8.81,48.13,31.59a57.63,57.63,0,0,1,3.08,10.86c.71,3.55-.85,9.76,3.87,10.21,5,.47,11,0,13.93-5.81,4.4-8.86,10.71-11.3,19.4-10,7.12,1.11,10-4.24,8.72-13.83-2.46-18.28-7.19-35.92-12.3-53.43-6.59-22.59-11.38-45.43-11.32-69.38.12-45.61,18-80.38,52.09-105.41,22.68-16.63,48.7-23.65,74.53-31.07a214.79,214.79,0,0,1,49.29-8.57c4.43-.22,5.45,1.39,5.37,6-.52,27.66-7,53.25-20.92,76.44-1.46,2.44-3.67,4.56-3.91,8.28a103.06,103.06,0,0,0,19.71-3.55c2.05-.55,4.8-2,6.1.53,1.16,2.29-1.5,3.76-2.85,5.16-7.25,7.48-12.74,17.21-22.26,21.77-2.39,1.15-2.14,2.82-1.61,4.6,5.51,18.47,4.73,37.53,4.47,56.54-.31,23.23-7.56,44.56-15.6,65.43-26.54,68.81-60.45,133.26-96.28,196.56-13.62,24.06-27.31,48.08-44.28,69.47-16.19,20.42-34.39,38.17-60.14,41.52-24.83,3.24-47.75-.6-64.44-26.48-12.71-19.71-6.86-41.78,11.57-50.58,13.8-6.59,27.65-8.88,42.32-6.41C957.25,742.5,964.39,740.84,972.37,734Zm86.08-354.35c-6.9,1.87-11.3,5.18-15.78,8.19-1.08.72-2.09,2-3.24,1-1.38-1.23-1-3.23-.1-4.52,3.84-5.76,7.85-11.32,13.29-15.5,18.93-14.54,40.35-17.56,62.59-16.67,15.2.6,29.5,4.35,41.86,15,4,3.5,8,1.59,10.67-3,3.52-6,7-12,10.31-18.11,10-18.8,14.83-39.17,14.72-61,0-3.43.29-5.05-4.27-4.51-8.4,1-16.73,2.08-25.07,3.66-26.68,5.06-52.6,13.09-77,25.77-43.24,22.45-66,59.85-65.66,113.47.15,22.57,5.32,43.92,11,65.28,5.37,20.13,12.22,39.93,11.79,61.46-.08,4.11-.82,7.72-3.73,10.3-10,8.89-22.69,11.77-34.3,16-7.29,2.65-12,3.34-13.7,12.73-1.24,7.05-5.58,13.36-7.91,20.26-1.58,4.68-2.56,11,3.71,12,8.53,1.39,17.17,4.64,25.95,1.62,3.93-1.35,7.37-.06,10.86,1.56,14.84,6.93,23.86,29.23,13.45,46.1-1,1.69-1.07,3.1-.95,5.2a54.1,54.1,0,0,1-6.62,29.64c-10.08,18-26.22,25.1-44.26,28-4.24.69-8,1.36-11.63,4.64-6.52,6-14.34,8.11-22.93,7.39-10.39-.88-20.85-1.58-31.1,1.39-7.69,2.23-15.13,5.39-20.83,11.74-9.66,10.77-7.67,27.44,2.74,41.53,19,25.72,60.69,24.34,83.06,9.65,22.89-15,38.71-37.88,53.17-61.58a1646.57,1646.57,0,0,0,104.12-199c13.4-30.69,26.52-61.88,29.5-96.75,1.6-18.73-.52-36.91-4.06-55-.33-1.71-.35-4.86-3.19-4.86-7,0-13.82-2.5-20.15,5.16-10.92,13.19-25.39,18.26-41.78,18.28-19.94,0-39-5.06-58.2-9.72-7.58-1.84-5.11-4.11-1.64-8.06C1048,392.87,1053.62,387.9,1058.45,379.65Zm-155,295.43c2.27,5.71,4.79,11.84,7.17,18,3.82,10,8.87,18.82,16.94,25.48,14.07,11.62,30.85,9.24,46.74,11.47,2.74.38,3.87-1.91,4.16-4.74.34-3.41-.54-6.57-1.5-9.71-3.62-11.9-6.21-23.78.65-34.85C953.18,676,928.49,678.16,903.44,675.08Zm244.23-286.14c-13.79-6.38-26-16.16-40.9-17.15s-30.14-1.78-42.73,9.8c-6.46,6-12.57,12.38-18.83,18.59l1.56,2.46c13,2.62,25.86,5.73,38.89,7.75C1109,414,1130.56,410.49,1147.67,388.94ZM899.23,665.7c9.33,1.79,17,3.4,24.8,4.71,5.4.92,10.64-.73,15.18-3.56,13.78-8.58,27.47-13.09,42.61-3.63,2.4,1.49,7.24,3.41,9.59-.93a196.82,196.82,0,0,0,10.79-23c1.36-3.53,1.74-8.71-3.18-10.22a55.66,55.66,0,0,0-38,1.8C939.7,639.43,920.8,653.09,899.23,665.7Zm83.45,63.72a77,77,0,0,0,24.36-7.55c15.89-8,24.14-22.13,25.65-41.16.19-2.34.9-5.89-2.21-6.06-10.63-.56-21.39-5.09-31.92.65-2.2,1.2-4.33,2.69-6.65,3.42-12.46,3.9-14.3,7.21-13.49,21.56C979,710.08,984.46,718.8,982.68,729.42Zm7.77-159c0-2.25.32-4.49-.05-6.58-3.54-20.14-21.32-37.11-39.83-38.19-15.94-.92-24.44,5.1-26.84,19.2A18,18,0,0,0,930,562.2c4.52,3.94,7.75-.75,11.29-2.87,5-3,9.86-6.06,15.52-7.65,16.29-4.57,24.61-.29,30.76,16.59C988,569.3,988.06,570.4,990.45,570.46Zm3.9,93.61c5.09-1.55,9.27-5.66,12.31-3.3,7,5.46,15.27,3.82,22.6,6.5,4.94,1.81,6.67.09,8-4.61,3.91-13.93-4.94-31.36-17.94-35-4.34-1.23-8.68,0-12.42,1.85-3.07,1.52,1.26,4.6.3,7.33-1.76,5.06-3.05,10.29-6,14.83C999,655.12,997.17,658.93,994.35,664.07Zm156.88-295.3c-26.22-21-83.61-13.47-100.41,8.9,4.27-1.62,8.21-2.55,11.65-4.52,18.8-10.73,38.46-12,58.78-7.21C1130.75,368.18,1140.27,370.36,1151.23,368.77ZM942,669.87c.07.74.14,1.48.22,2.22q18.3,1.67,36.6,3.33a21.62,21.62,0,0,0,10.3-1.77c1.41-.57,3.09-1.2,2.81-3.25-.33-2.51-2.31-1.51-3.59-1.41a22.22,22.22,0,0,1-12.9-3.35C963.15,658.52,952.74,665.38,942,669.87Zm246.83-301c-7.26,1.3-13.58,2.35-19.86,3.57-2.41.46-4.6,2.73-4.19,4.86a22.74,22.74,0,0,0,4.31,9.25c1.69,2.17,3.6-.64,5-1.67C1179.54,380.76,1184.89,376.41,1188.84,368.86Zm-63.17,3.43c7.91,4.29,14.27,7.71,20.61,11.18,4.14,2.27,11.14-1.22,11.94-6.07.39-2.39-1.1-4.37-2.81-3.95C1146,375.72,1136.68,372.83,1125.67,372.29ZM948.79,563.17c7.31,1.65,13.07.58,18.75-1.12,1.76-.52,4.32-1.3,3.49-4.26-.64-2.27-2.8-3-4.86-2.76C960.27,555.84,954.46,557,948.79,563.17Zm212.39-174c1.85,0,3.8-.37,3.33-2.87-.43-2.2-1.1-5.57-3.83-5a5.74,5.74,0,0,0-4.06,5.27C1156.62,389.69,1159.47,388.61,1161.18,389.16ZM995.38,670.09c5.21.86,9.09-1.25,14.09-2.7C1002.42,664.59,1001.4,664.8,995.38,670.09Z" transform="translate(-722.02 -254.4)"/>
<path class="cls-2" d="M857.09,406c-20.89-.62-41.51-5.2-57.4-22.9a40,40,0,0,0-18.57-11.83c-13.37-4.36-20.5-16.64-27.14-29-.74-1.37-2.37-4.28.14-5.83,2.93-1.81,3.24,1.57,4,3.24C763.47,351.47,774,354.79,783.9,359c3.07,1.3,4.88-2,7.11-3.67C823.34,330.91,858.37,325,895.1,339.8c23.27,9.38,26.64,33,24,54.41-.37,3.07-2.28,3.46-4.3,3.32-15-1.07-29,5.21-43.52,7.28C866.83,405.46,862.37,405.52,857.09,406ZM798,375.14a71.87,71.87,0,0,0,28.43,20.63c29.72,12,58.3-.29,87.67-3.7a24.39,24.39,0,0,0-7.72-10.87c-11.06-9.44-24-12.86-37.42-15.31C844.61,361.43,821.19,365.29,798,375.14Zm117.29,5.14c-.47-18.11-8.65-31.61-23.51-37.45-20.39-8-41.13-8.38-62.08-2.39a91.83,91.83,0,0,0-34.55,18.17c16-.46,31.77,1.58,47.76-2.11,23-5.31,45.61-3.49,64.55,15.32C910.12,374.51,911.15,379.11,915.24,380.28ZM791,363.13c3,8.09,15.79,7.95,23.94,0Zm65.8-3.66c11.34,1.25,22.49,3.93,33.73,5.94C879.82,359.8,868.65,357.33,856.84,359.47Zm-67.32,9.91c-5.46-8.39-12.44-7.45-18.16-9.79A35.54,35.54,0,0,0,789.52,369.38Z" transform="translate(-722.02 -254.4)"/></g>
</svg>