<svg xmlns="http://www.w3.org/2000/svg" xmlns:xlink="http://www.w3.org/1999/xlink" viewBox="0 0 1005.63 1164.78"><defs><style>.cls-1,.cls-2{fill:none;}.cls-2{stroke:#fff9df;stroke-width:2.88px;}.cls-3{fill:#ceb461;}.cls-4{fill:#ed4b04;}.cls-5{fill:#fee4cb;}.cls-6{fill:#213326;}.cls-7{fill:#73968d;}.cls-8{fill:#0d3b3c;}.cls-9{fill:#ee7f50;}.cls-10{fill:url(#_10_lpi_40_11);}.cls-11{clip-path:url(#clip-path);}.cls-12{clip-path:url(#clip-path-2);}.cls-13{fill:#ffe9d7;}.cls-14{clip-path:url(#clip-path-3);}.cls-15{fill:#f58b1f;}.cls-16{clip-path:url(#clip-path-4);}.cls-17{fill:#f38053;}.cls-18{clip-path:url(#clip-path-5);}.cls-19{clip-path:url(#clip-path-6);}.cls-20{fill:#fdcda0;}.cls-21{fill:#24182e;}</style><pattern id="_10_lpi_40_11" data-name="10 lpi 40% 11" width="72" height="72" patternTransform="translate(-1779.92 -708.97) scale(2.56 2.56)" patternUnits="userSpaceOnUse" viewBox="0 0 72 72"><rect class="cls-1" width="72" height="72"/><line class="cls-2" x1="71.75" y1="68.4" x2="144.25" y2="68.4"/><line class="cls-2" x1="71.75" y1="54" x2="144.25" y2="54"/><line class="cls-2" x1="71.75" y1="39.6" x2="144.25" y2="39.6"/><line class="cls-2" x1="71.75" y1="25.2" x2="144.25" y2="25.2"/><line class="cls-2" x1="71.75" y1="10.8" x2="144.25" y2="10.8"/><line class="cls-2" x1="71.75" y1="61.2" x2="144.25" y2="61.2"/><line class="cls-2" x1="71.75" y1="46.8" x2="144.25" y2="46.8"/><line class="cls-2" x1="71.75" y1="32.4" x2="144.25" y2="32.4"/><line class="cls-2" x1="71.75" y1="18" x2="144.25" y2="18"/><line class="cls-2" x1="71.75" y1="3.6" x2="144.25" y2="3.6"/><line class="cls-2" x1="-0.25" y1="68.4" x2="72.25" y2="68.4"/><line class="cls-2" x1="-0.25" y1="54" x2="72.25" y2="54"/><line class="cls-2" x1="-0.25" y1="39.6" x2="72.25" y2="39.6"/><line class="cls-2" x1="-0.25" y1="25.2" x2="72.25" y2="25.2"/><line class="cls-2" x1="-0.25" y1="10.8" x2="72.25" y2="10.8"/><line class="cls-2" x1="-0.25" y1="61.2" x2="72.25" y2="61.2"/><line class="cls-2" x1="-0.25" y1="46.8" x2="72.25" y2="46.8"/><line class="cls-2" x1="-0.25" y1="32.4" x2="72.25" y2="32.4"/><line class="cls-2" x1="-0.25" y1="18" x2="72.25" y2="18"/><line class="cls-2" x1="-0.25" y1="3.6" x2="72.25" y2="3.6"/><line class="cls-2" x1="-72.25" y1="68.4" x2="0.25" y2="68.4"/><line class="cls-2" x1="-72.25" y1="54" x2="0.25" y2="54"/><line class="cls-2" x1="-72.25" y1="39.6" x2="0.25" y2="39.6"/><line class="cls-2" x1="-72.25" y1="25.2" x2="0.25" y2="25.2"/><line class="cls-2" x1="-72.25" y1="10.8" x2="0.25" y2="10.8"/><line class="cls-2" x1="-72.25" y1="61.2" x2="0.25" y2="61.2"/><line class="cls-2" x1="-72.25" y1="46.8" x2="0.25" y2="46.8"/><line class="cls-2" x1="-72.25" y1="32.4" x2="0.25" y2="32.4"/><line class="cls-2" x1="-72.25" y1="18" x2="0.25" y2="18"/><line class="cls-2" x1="-72.25" y1="3.6" x2="0.25" y2="3.6"/></pattern><clipPath id="clip-path" transform="translate(0 -0.19)"><rect class="cls-1" x="335.98" y="832.29" width="166.89" height="169.77" transform="translate(-497.75 1336.6) rotate(-90)"/></clipPath><clipPath id="clip-path-2" transform="translate(0 -0.19)"><rect class="cls-1" x="335.07" width="167.46" height="169.2"/></clipPath><clipPath id="clip-path-3" transform="translate(0 -0.19)"><rect class="cls-1" x="559.32" y="335.56" width="111.03" height="110.71"/></clipPath><clipPath id="clip-path-4" transform="translate(0 -0.19)"><rect class="cls-1" x="559.32" y="556.45" width="111.03" height="110.71"/></clipPath><clipPath id="clip-path-5" transform="translate(0 -0.19)"><rect class="cls-1" x="333.76" y="335.56" width="111.03" height="110.71"/></clipPath><clipPath id="clip-path-6" transform="translate(0 -0.19)"><rect class="cls-1" x="337.21" y="556.45" width="111.03" height="110.71"/></clipPath></defs><g id="Calque_2" data-name="Calque 2"><g id="Calque_2-2" data-name="Calque 2"><rect class="cls-3" x="213.64" width="789.99" height="787.33"/><rect class="cls-4" x="669.09" width="334.55" height="333.42"/><rect class="cls-5" x="669.09" y="333.42" width="334.55" height="333.42"/><rect class="cls-4" x="669.09" y="666.83" width="334.55" height="333.42"/><rect class="cls-6" x="334.55" width="334.54" height="333.42"/><rect class="cls-4" x="334.55" y="333.42" width="334.54" height="333.42"/><rect class="cls-7" x="334.55" y="667.83" width="334.54" height="333.42"/><rect class="cls-7" width="334.55" height="333.42"/><rect class="cls-4" y="333.42" width="334.55" height="333.42"/><rect class="cls-4" y="666.83" width="334.55" height="333.42"/><polygon class="cls-5" points="334.55 0.04 222.34 0.04 222.34 111.99 334.55 0.04"/><polygon class="cls-5" points="222.34 0.04 110.68 0.04 110.68 111.99 222.34 0.04"/><polygon class="cls-5" points="110.68 223.94 222.34 111.99 110.68 111.99 110.68 223.94"/><polygon class="cls-5" points="0.01 0.04 0.01 111.99 110.68 0.04 0.01 0.04"/><polygon class="cls-5" points="0.01 111.99 0.01 223.94 110.68 111.99 0.01 111.99"/><polygon class="cls-5" points="110.68 223.94 0.01 223.94 0.01 333.43 110.68 223.94"/><path class="cls-8" d="M161,239.41h0a74.92,74.92,0,0,1,75.05-74.79h0a74.91,74.91,0,0,1,75,74.79h0a74.9,74.9,0,0,1-75,74.78h0A74.92,74.92,0,0,1,161,239.41Z" transform="translate(0 -0.19)"/><rect class="cls-6" x="836.65" y="1.02" width="166.71" height="167.27" transform="translate(835.34 1004.48) rotate(-90)"/><path class="cls-8" d="M954.05,84.66h0a34,34,0,0,1-34,33.94h0a34,34,0,0,1-34-33.94h0a34,34,0,0,1,34-33.94h0A34,34,0,0,1,954.05,84.66Z" transform="translate(0 -0.19)"/><polygon class="cls-7" points="836.32 334.2 836.32 167.5 669.05 334.21 836.32 334.2"/><rect class="cls-7" x="669.05" y="167.5" width="167.27"/><polygon class="cls-8" points="669.05 334.21 669.05 334.21 669.05 334.21 836.32 167.5 669.05 167.5 669.05 334.21"/><path class="cls-5" d="M836.37,168H669.09V1.3h0C761.47,1.3,836.37,75.94,836.37,168Z" transform="translate(0 -0.19)"/><rect class="cls-9" y="661.12" width="334.53" height="340.69"/><rect class="cls-10" x="167.27" y="661.13" width="167.28" height="340.67"/><rect class="cls-6" y="661.12" width="167.26" height="172.97"/><rect class="cls-7" x="167.27" y="661.12" width="167.27" height="172.97"/><g class="cls-11"><path class="cls-5" d="M338.88,1000.62c0-90.62,74.23-164.34,165.46-164.34S669.79,910,669.79,1000.62,595.57,1165,504.34,1165,338.88,1091.24,338.88,1000.62Zm330.18,0c0-90.21-73.9-163.61-164.72-163.61s-164.73,73.4-164.73,163.61,73.9,163.62,164.73,163.62S669.06,1090.84,669.06,1000.62Z" transform="translate(0 -0.19)"/><path class="cls-5" d="M350.82,1000.62c0-84.08,68.87-152.48,153.52-152.48s153.51,68.4,153.51,152.48S589,1153.11,504.34,1153.11,350.82,1084.7,350.82,1000.62Zm306.32,0c0-83.68-68.55-151.77-152.8-151.77s-152.81,68.09-152.81,151.77,68.55,151.78,152.81,151.78S657.14,1084.31,657.14,1000.62Z" transform="translate(0 -0.19)"/><path class="cls-5" d="M362.76,1000.62c0-77.54,63.51-140.62,141.58-140.62s141.58,63.08,141.58,140.62-63.52,140.63-141.58,140.63S362.76,1078.17,362.76,1000.62Zm282.46,0c0-77.16-63.2-139.93-140.88-139.93s-140.89,62.77-140.89,139.93,63.2,139.93,140.89,139.93S645.22,1077.78,645.22,1000.62Z" transform="translate(0 -0.19)"/><path class="cls-5" d="M374.69,1000.62c0-71,58.16-128.77,129.65-128.77S634,929.62,634,1000.62s-58.16,128.77-129.64,128.77S374.69,1071.63,374.69,1000.62Zm258.61,0c0-70.63-57.85-128.09-129-128.09s-129,57.46-129,128.09,57.86,128.09,129,128.09S633.3,1071.25,633.3,1000.62Z" transform="translate(0 -0.19)"/><path class="cls-5" d="M386.63,1000.62c0-64.47,52.8-116.91,117.71-116.91S622,936.15,622,1000.62s-52.8,116.92-117.7,116.92S386.63,1065.09,386.63,1000.62Zm234.75,0c0-64.1-52.51-116.25-117-116.25s-117,52.15-117,116.25,52.51,116.25,117,116.25S621.38,1064.72,621.38,1000.62Z" transform="translate(0 -0.19)"/><path class="cls-5" d="M398.57,1000.62c0-57.92,47.44-105,105.77-105s105.76,47.13,105.76,105-47.44,105.06-105.76,105.06S398.57,1058.55,398.57,1000.62Zm210.89,0c0-57.57-47.16-104.41-105.12-104.41s-105.13,46.84-105.13,104.41S446.37,1105,504.34,1105,609.46,1058.19,609.46,1000.62Z" transform="translate(0 -0.19)"/><path class="cls-5" d="M410.5,1000.62c0-51.39,42.1-93.2,93.84-93.2s93.83,41.81,93.83,93.2-42.1,93.2-93.83,93.2S410.5,1052,410.5,1000.62Zm187,0c0-51-41.81-92.57-93.2-92.57s-93.21,41.53-93.21,92.57,41.81,92.57,93.21,92.57S597.54,1051.67,597.54,1000.62Z" transform="translate(0 -0.19)"/><path class="cls-5" d="M422.44,1000.62c0-44.85,36.74-81.34,81.9-81.34s81.89,36.49,81.89,81.34S549.49,1082,504.34,1082,422.44,1045.48,422.44,1000.62Zm163.17,0c0-44.51-36.46-80.73-81.27-80.73s-81.28,36.22-81.28,80.73,36.46,80.73,81.28,80.73S585.61,1045.14,585.61,1000.62Z" transform="translate(0 -0.19)"/><path class="cls-5" d="M434.38,1000.62c0-38.31,31.38-69.49,70-69.49s69.95,31.18,69.95,69.49-31.38,69.49-69.95,69.49S434.38,1038.94,434.38,1000.62Zm139.31,0c0-38-31.11-68.89-69.35-68.89S435,962.64,435,1000.62s31.11,68.89,69.36,68.89S573.69,1038.61,573.69,1000.62Z" transform="translate(0 -0.19)"/><path class="cls-5" d="M446.32,1000.62c0-31.78,26-57.63,58-57.63s58,25.85,58,57.63-26,57.63-58,57.63S446.32,1032.4,446.32,1000.62Zm115.45,0c0-31.46-25.76-57-57.43-57s-57.44,25.59-57.44,57,25.77,57.05,57.44,57.05S561.77,1032.08,561.77,1000.62Z" transform="translate(0 -0.19)"/><path class="cls-5" d="M458.25,1000.62a46.09,46.09,0,1,1,46.09,45.78A46,46,0,0,1,458.25,1000.62Zm91.6,0a45.52,45.52,0,1,0-45.51,45.21A45.41,45.41,0,0,0,549.85,1000.62Z" transform="translate(0 -0.19)"/><path class="cls-5" d="M470.19,1000.62a34.15,34.15,0,1,1,34.15,33.92A34.08,34.08,0,0,1,470.19,1000.62Zm67.74,0A33.6,33.6,0,1,0,504.34,1034,33.52,33.52,0,0,0,537.93,1000.62Z" transform="translate(0 -0.19)"/><path class="cls-5" d="M482.12,1000.62a22.22,22.22,0,1,1,22.22,22.06A22.17,22.17,0,0,1,482.12,1000.62Zm43.89,0a21.68,21.68,0,1,0-21.67,21.53A21.63,21.63,0,0,0,526,1000.62Z" transform="translate(0 -0.19)"/><path class="cls-5" d="M494.06,1000.62a10.28,10.28,0,1,1,10.28,10.21A10.25,10.25,0,0,1,494.06,1000.62Zm20,0a9.76,9.76,0,1,0-9.75,9.69A9.73,9.73,0,0,0,514.09,1000.62Z" transform="translate(0 -0.19)"/></g><path class="cls-4" d="M560.41,837.12h-15v109a166.08,166.08,0,0,0,15,14.78Z" transform="translate(0 -0.19)"/><path class="cls-4" d="M509.66,880.76a161.82,161.82,0,0,0,15,36.37v-80h-15Z" transform="translate(0 -0.19)"/><path class="cls-4" d="M634.78,997.72q7.51,1.56,15.26,2.44a3.64,3.64,0,0,1-.25-1.37V837.12h-15Z" transform="translate(0 -0.19)"/><path class="cls-4" d="M542.54,837.12h-15V922a164.32,164.32,0,0,0,15,20.77Z" transform="translate(0 -0.19)"/><path class="cls-4" d="M616.91,992.93q7.35,2.42,15,4.17v-160h-15Z" transform="translate(0 -0.19)"/><path class="cls-4" d="M652.65,998.79a3.58,3.58,0,0,1-.36,1.61q8.18.81,16.57.82V837.12H652.65Z" transform="translate(0 -0.19)"/><path class="cls-4" d="M599,985.86q7.32,3.4,15,6.09V837.12H599Z" transform="translate(0 -0.19)"/><path class="cls-4" d="M506.79,837.12h-3v.13a163.89,163.89,0,0,0,3,31.3Z" transform="translate(0 -0.19)"/><path class="cls-4" d="M563.29,963.31a164.93,164.93,0,0,0,15,11V837.12h-15Z" transform="translate(0 -0.19)"/><path class="cls-4" d="M581.16,976.18a165.65,165.65,0,0,0,15,8.32V837.12h-15Z" transform="translate(0 -0.19)"/><g class="cls-12"><path class="cls-5" d="M335.07,4.33C426,4.33,500,78.3,500,169.22s-74,164.9-164.9,164.9-164.9-74-164.9-164.9S244.14,4.33,335.07,4.33Zm0,329.06c90.52,0,164.16-73.64,164.16-164.17S425.59,5.06,335.07,5.06,170.9,78.7,170.9,169.22,244.55,333.39,335.07,333.39Z" transform="translate(0 -0.19)"/><path class="cls-5" d="M335.07,16.23c84.36,0,153,68.63,153,153s-68.64,153-153,153-153-68.63-153-153S250.7,16.23,335.07,16.23Zm0,305.28c84,0,152.29-68.31,152.29-152.29S419,16.94,335.07,16.94,182.78,85.25,182.78,169.22,251.1,321.51,335.07,321.51Z" transform="translate(0 -0.19)"/><path class="cls-5" d="M335.07,28.12c77.8,0,141.1,63.3,141.1,141.1s-63.3,141.11-141.1,141.11S194,247,194,169.22,257.26,28.12,335.07,28.12Zm0,281.51c77.42,0,140.4-63,140.4-140.41s-63-140.4-140.4-140.4-140.41,63-140.41,140.4S257.65,309.63,335.07,309.63Z" transform="translate(0 -0.19)"/><path class="cls-5" d="M335.07,40a129.35,129.35,0,0,1,129.2,129.2c0,71.25-58,129.21-129.2,129.21A129.35,129.35,0,0,1,205.86,169.22C205.86,98,263.82,40,335.07,40Zm0,257.73a128.53,128.53,0,0,0,0-257c-70.87,0-128.53,57.66-128.53,128.52A128.68,128.68,0,0,0,335.07,297.75Z" transform="translate(0 -0.19)"/><path class="cls-5" d="M335.07,51.92a117.31,117.31,0,1,1-117.31,117.3A117.44,117.44,0,0,1,335.07,51.92Zm0,234A116.65,116.65,0,1,0,218.42,169.22,116.77,116.77,0,0,0,335.07,285.87Z" transform="translate(0 -0.19)"/><path class="cls-5" d="M335.07,63.81A105.42,105.42,0,1,1,229.65,169.22,105.53,105.53,0,0,1,335.07,63.81Zm0,210.18A104.77,104.77,0,1,0,230.3,169.22,104.88,104.88,0,0,0,335.07,274Z" transform="translate(0 -0.19)"/><path class="cls-5" d="M335.07,75.71a93.52,93.52,0,1,1-93.52,93.51A93.63,93.63,0,0,1,335.07,75.71Zm0,186.4a92.89,92.89,0,1,0-92.89-92.89A93,93,0,0,0,335.07,262.11Z" transform="translate(0 -0.19)"/><path class="cls-5" d="M335.07,87.61a81.62,81.62,0,1,1-81.63,81.61A81.71,81.71,0,0,1,335.07,87.61Zm0,162.62a81,81,0,1,0-81-81A81.09,81.09,0,0,0,335.07,250.23Z" transform="translate(0 -0.19)"/><path class="cls-5" d="M335.07,99.5a69.73,69.73,0,1,1-69.73,69.72A69.8,69.8,0,0,1,335.07,99.5Zm0,138.85A69.13,69.13,0,1,0,266,169.22,69.2,69.2,0,0,0,335.07,238.35Z" transform="translate(0 -0.19)"/><path class="cls-5" d="M335.07,111.4a57.83,57.83,0,1,1-57.83,57.82A57.9,57.9,0,0,1,335.07,111.4Zm0,115.07a57.25,57.25,0,1,0-57.25-57.25A57.31,57.31,0,0,0,335.07,226.47Z" transform="translate(0 -0.19)"/><path class="cls-5" d="M335.07,123.3a45.93,45.93,0,1,1-45.93,45.92A46,46,0,0,1,335.07,123.3Zm0,91.29a45.37,45.37,0,1,0-45.37-45.37A45.42,45.42,0,0,0,335.07,214.59Z" transform="translate(0 -0.19)"/><path class="cls-5" d="M335.07,135.19a34,34,0,1,1-34,34A34.07,34.07,0,0,1,335.07,135.19Zm0,67.52a33.49,33.49,0,1,0-33.49-33.49A33.52,33.52,0,0,0,335.07,202.71Z" transform="translate(0 -0.19)"/><path class="cls-5" d="M335.07,147.09a22.14,22.14,0,1,1-22.14,22.13A22.16,22.16,0,0,1,335.07,147.09Zm0,43.74a21.61,21.61,0,1,0-21.6-21.61A21.63,21.63,0,0,0,335.07,190.83Z" transform="translate(0 -0.19)"/><path class="cls-5" d="M335.07,159a10.24,10.24,0,1,1-10.24,10.23A10.25,10.25,0,0,1,335.07,159Zm0,20a9.73,9.73,0,1,0-9.72-9.73A9.73,9.73,0,0,0,335.07,179Z" transform="translate(0 -0.19)"/></g><path class="cls-4" d="M671,333.56h-.13A164.53,164.53,0,0,1,506.38,169H671Z" transform="translate(0 -0.19)"/><path class="cls-8" d="M504.19,169h0c-93.34,0-169,73.67-169,164.53h0c93.33,0,169-73.66,169-164.53Z" transform="translate(0 -0.19)"/><path class="cls-5" d="M669.09,2.33h0c-93.34,0-169,73.67-169,164.54h0c93.33,0,169-73.67,169-164.54Z" transform="translate(0 -0.19)"/><rect class="cls-13" x="336.01" y="335.38" width="333.09" height="332.14"/><g class="cls-14"><path class="cls-15" d="M586.71,437.05a74.16,74.16,0,1,0-74.37-74.17A74.26,74.26,0,0,0,586.71,437.05Z" transform="translate(0 -0.19)"/></g><g class="cls-16"><path class="cls-17" d="M643,565.68a74.16,74.16,0,1,0,74.37,74.16A74.27,74.27,0,0,0,643,565.68Z" transform="translate(0 -0.19)"/></g><g class="cls-18"><path class="cls-7" d="M417.39,437.05a74.16,74.16,0,1,1,74.38-74.17A74.27,74.27,0,0,1,417.39,437.05Z" transform="translate(0 -0.19)"/></g><g class="cls-19"><path class="cls-20" d="M363.54,711.13A74.16,74.16,0,1,1,437.92,637,74.27,74.27,0,0,1,363.54,711.13Z" transform="translate(0 -0.19)"/></g><rect class="cls-5" x="836.39" y="665.72" width="167.22" height="167.18" transform="translate(1669.31 -170.87) rotate(90)"/><rect class="cls-15" x="836.39" y="832.94" width="167.22" height="167.18" transform="translate(1836.52 -3.65) rotate(90)"/><rect class="cls-5" x="877.91" y="874.44" width="84.18" height="84.18" transform="translate(-378.62 918.96) rotate(-45.01)"/><path class="cls-4" d="M904,900.47h0a22.69,22.69,0,0,1,32.09,0h0a22.7,22.7,0,0,1,0,32.11h0a22.68,22.68,0,0,1-32.09,0h0A22.7,22.7,0,0,1,904,900.47Z" transform="translate(0 -0.19)"/><rect class="cls-4" x="669.21" y="832.94" width="167.22" height="167.18" transform="translate(1669.35 163.52) rotate(90)"/><polygon class="cls-9" points="669.23 999.95 836.41 832.73 669.23 832.73 669.23 999.95"/><polygon class="cls-5" points="669.23 934.4 770.88 832.73 669.23 832.73 669.23 934.4"/><path class="cls-15" d="M1003.58,665.76V832.87a83.61,83.61,0,0,1,0-167.11Z" transform="translate(0 -0.19)"/><path class="cls-15" d="M836.41,832.87V665.76a83.61,83.61,0,0,1,0,167.11Z" transform="translate(0 -0.19)"/><path class="cls-4" d="M836.41,791.09V707.53a41.81,41.81,0,0,1,0,83.56Z" transform="translate(0 -0.19)"/><path class="cls-6" d="M1003.64,707.53v83.56a41.81,41.81,0,0,1,0-83.56Z" transform="translate(0 -0.19)"/><rect class="cls-15" x="720.49" y="884.21" width="64.66" height="64.64" transform="translate(1669.35 163.52) rotate(90)"/><rect class="cls-7" x="669.47" y="665.67" width="166.7" height="167.27" transform="translate(3.51 1501.94) rotate(-90)"/><polygon class="cls-8" points="836.46 665.77 669.18 832.48 669.18 665.77 836.46 665.77"/><rect class="cls-5" x="836.8" y="332.55" width="165.79" height="167.89" transform="translate(1336.19 -503.39) rotate(90)"/><path class="cls-8" d="M835.75,499.39V333.6h167.89c0,91.56-75.17,165.79-167.89,165.79Z" transform="translate(0 -0.19)"/><rect class="cls-8" x="669.26" y="332.9" width="166.32" height="166.66" transform="translate(1168.65 -336.38) rotate(90)"/><path class="cls-5" d="M700.92,416.23h0a51.44,51.44,0,0,1,51.5-51.4h0a51.45,51.45,0,0,1,51.5,51.4h0a51.45,51.45,0,0,1-51.5,51.39h0A51.45,51.45,0,0,1,700.92,416.23Z" transform="translate(0 -0.19)"/><rect class="cls-7" x="669.26" y="499.22" width="166.32" height="166.66" transform="translate(1334.96 -170.06) rotate(90)"/><path class="cls-17" d="M162.45,675.5a4.59,4.59,0,1,1,4.82-4.58A4.71,4.71,0,0,1,162.45,675.5Z" transform="translate(0 -0.19)"/><path class="cls-17" d="M162.45,702a4.59,4.59,0,1,1,4.82-4.59A4.71,4.71,0,0,1,162.45,702Z" transform="translate(0 -0.19)"/><path class="cls-17" d="M162.45,728.42a4.59,4.59,0,1,1,4.82-4.58A4.71,4.71,0,0,1,162.45,728.42Z" transform="translate(0 -0.19)"/><path class="cls-17" d="M162.45,754.88a4.59,4.59,0,1,1,4.82-4.58A4.71,4.71,0,0,1,162.45,754.88Z" transform="translate(0 -0.19)"/><path class="cls-17" d="M162.45,781.34a4.59,4.59,0,1,1,4.82-4.58A4.71,4.71,0,0,1,162.45,781.34Z" transform="translate(0 -0.19)"/><path class="cls-17" d="M162.45,807.81a4.59,4.59,0,1,1,4.82-4.58A4.71,4.71,0,0,1,162.45,807.81Z" transform="translate(0 -0.19)"/><path class="cls-17" d="M162.45,834.27a4.59,4.59,0,1,1,4.82-4.59A4.71,4.71,0,0,1,162.45,834.27Z" transform="translate(0 -0.19)"/><path class="cls-17" d="M142.84,675.5a4.59,4.59,0,1,1,4.83-4.58A4.71,4.71,0,0,1,142.84,675.5Z" transform="translate(0 -0.19)"/><path class="cls-17" d="M142.84,702a4.59,4.59,0,1,1,4.83-4.59A4.71,4.71,0,0,1,142.84,702Z" transform="translate(0 -0.19)"/><path class="cls-17" d="M142.84,728.42a4.59,4.59,0,1,1,4.83-4.58A4.71,4.71,0,0,1,142.84,728.42Z" transform="translate(0 -0.19)"/><path class="cls-17" d="M142.84,754.88a4.59,4.59,0,1,1,4.83-4.58A4.71,4.71,0,0,1,142.84,754.88Z" transform="translate(0 -0.19)"/><path class="cls-17" d="M142.84,781.34a4.59,4.59,0,1,1,4.83-4.58A4.71,4.71,0,0,1,142.84,781.34Z" transform="translate(0 -0.19)"/><path class="cls-17" d="M142.84,807.81a4.59,4.59,0,1,1,4.83-4.58A4.71,4.71,0,0,1,142.84,807.81Z" transform="translate(0 -0.19)"/><path class="cls-17" d="M142.84,834.27a4.59,4.59,0,1,1,4.83-4.59A4.71,4.71,0,0,1,142.84,834.27Z" transform="translate(0 -0.19)"/><path class="cls-17" d="M123.24,675.5a4.59,4.59,0,1,1,4.83-4.58A4.71,4.71,0,0,1,123.24,675.5Z" transform="translate(0 -0.19)"/><path class="cls-17" d="M123.24,702a4.59,4.59,0,1,1,4.83-4.59A4.71,4.71,0,0,1,123.24,702Z" transform="translate(0 -0.19)"/><path class="cls-17" d="M123.24,728.42a4.59,4.59,0,1,1,4.83-4.58A4.71,4.71,0,0,1,123.24,728.42Z" transform="translate(0 -0.19)"/><path class="cls-17" d="M123.24,754.88a4.59,4.59,0,1,1,4.83-4.58A4.71,4.71,0,0,1,123.24,754.88Z" transform="translate(0 -0.19)"/><path class="cls-17" d="M123.24,781.34a4.59,4.59,0,1,1,4.83-4.58A4.71,4.71,0,0,1,123.24,781.34Z" transform="translate(0 -0.19)"/><path class="cls-17" d="M123.24,807.81a4.59,4.59,0,1,1,4.83-4.58A4.71,4.71,0,0,1,123.24,807.81Z" transform="translate(0 -0.19)"/><path class="cls-17" d="M123.24,834.27a4.59,4.59,0,1,1,4.83-4.59A4.71,4.71,0,0,1,123.24,834.27Z" transform="translate(0 -0.19)"/><path class="cls-17" d="M103.63,675.5a4.59,4.59,0,1,1,4.83-4.58A4.71,4.71,0,0,1,103.63,675.5Z" transform="translate(0 -0.19)"/><path class="cls-17" d="M103.63,702a4.59,4.59,0,1,1,4.83-4.59A4.72,4.72,0,0,1,103.63,702Z" transform="translate(0 -0.19)"/><path class="cls-17" d="M103.63,728.42a4.59,4.59,0,1,1,4.83-4.58A4.71,4.71,0,0,1,103.63,728.42Z" transform="translate(0 -0.19)"/><path class="cls-17" d="M103.63,754.88a4.59,4.59,0,1,1,4.83-4.58A4.71,4.71,0,0,1,103.63,754.88Z" transform="translate(0 -0.19)"/><path class="cls-17" d="M103.63,781.34a4.59,4.59,0,1,1,4.83-4.58A4.71,4.71,0,0,1,103.63,781.34Z" transform="translate(0 -0.19)"/><path class="cls-17" d="M103.63,807.81a4.59,4.59,0,1,1,4.83-4.58A4.71,4.71,0,0,1,103.63,807.81Z" transform="translate(0 -0.19)"/><path class="cls-17" d="M103.63,834.27a4.59,4.59,0,1,1,4.83-4.59A4.72,4.72,0,0,1,103.63,834.27Z" transform="translate(0 -0.19)"/><path class="cls-17" d="M84,675.5a4.59,4.59,0,1,1,4.83-4.58A4.71,4.71,0,0,1,84,675.5Z" transform="translate(0 -0.19)"/><path class="cls-17" d="M84,702a4.59,4.59,0,1,1,4.83-4.59A4.71,4.71,0,0,1,84,702Z" transform="translate(0 -0.19)"/><path class="cls-17" d="M84,728.42a4.59,4.59,0,1,1,4.83-4.58A4.71,4.71,0,0,1,84,728.42Z" transform="translate(0 -0.19)"/><path class="cls-17" d="M84,754.88a4.59,4.59,0,1,1,4.83-4.58A4.71,4.71,0,0,1,84,754.88Z" transform="translate(0 -0.19)"/><path class="cls-17" d="M84,781.34a4.59,4.59,0,1,1,4.83-4.58A4.71,4.71,0,0,1,84,781.34Z" transform="translate(0 -0.19)"/><path class="cls-17" d="M84,807.81a4.59,4.59,0,1,1,4.83-4.58A4.71,4.71,0,0,1,84,807.81Z" transform="translate(0 -0.19)"/><path class="cls-17" d="M84,834.27a4.59,4.59,0,1,1,4.83-4.59A4.71,4.71,0,0,1,84,834.27Z" transform="translate(0 -0.19)"/><path class="cls-17" d="M64.43,675.5a4.59,4.59,0,1,1,4.82-4.58A4.71,4.71,0,0,1,64.43,675.5Z" transform="translate(0 -0.19)"/><path class="cls-17" d="M64.43,702a4.59,4.59,0,1,1,4.82-4.59A4.71,4.71,0,0,1,64.43,702Z" transform="translate(0 -0.19)"/><path class="cls-17" d="M64.43,728.42a4.59,4.59,0,1,1,4.82-4.58A4.71,4.71,0,0,1,64.43,728.42Z" transform="translate(0 -0.19)"/><path class="cls-17" d="M64.43,754.88a4.59,4.59,0,1,1,4.82-4.58A4.71,4.71,0,0,1,64.43,754.88Z" transform="translate(0 -0.19)"/><path class="cls-17" d="M64.43,781.34a4.59,4.59,0,1,1,4.82-4.58A4.71,4.71,0,0,1,64.43,781.34Z" transform="translate(0 -0.19)"/><path class="cls-17" d="M64.43,807.81a4.59,4.59,0,1,1,4.82-4.58A4.71,4.71,0,0,1,64.43,807.81Z" transform="translate(0 -0.19)"/><path class="cls-17" d="M64.43,834.27a4.59,4.59,0,1,1,4.82-4.59A4.71,4.71,0,0,1,64.43,834.27Z" transform="translate(0 -0.19)"/><path class="cls-17" d="M44.82,675.5a4.59,4.59,0,1,1,4.83-4.58A4.71,4.71,0,0,1,44.82,675.5Z" transform="translate(0 -0.19)"/><path class="cls-17" d="M44.82,702a4.59,4.59,0,1,1,4.83-4.59A4.72,4.72,0,0,1,44.82,702Z" transform="translate(0 -0.19)"/><path class="cls-17" d="M44.82,728.42a4.59,4.59,0,1,1,4.83-4.58A4.71,4.71,0,0,1,44.82,728.42Z" transform="translate(0 -0.19)"/><path class="cls-17" d="M44.82,754.88a4.59,4.59,0,1,1,4.83-4.58A4.71,4.71,0,0,1,44.82,754.88Z" transform="translate(0 -0.19)"/><path class="cls-17" d="M44.82,781.34a4.59,4.59,0,1,1,4.83-4.58A4.71,4.71,0,0,1,44.82,781.34Z" transform="translate(0 -0.19)"/><path class="cls-17" d="M44.82,807.81a4.59,4.59,0,1,1,4.83-4.58A4.71,4.71,0,0,1,44.82,807.81Z" transform="translate(0 -0.19)"/><path class="cls-17" d="M44.82,834.27a4.59,4.59,0,1,1,4.83-4.59A4.72,4.72,0,0,1,44.82,834.27Z" transform="translate(0 -0.19)"/><path class="cls-17" d="M25.22,675.5a4.59,4.59,0,1,1,4.83-4.58A4.71,4.71,0,0,1,25.22,675.5Z" transform="translate(0 -0.19)"/><path class="cls-17" d="M25.22,702a4.59,4.59,0,1,1,4.83-4.59A4.71,4.71,0,0,1,25.22,702Z" transform="translate(0 -0.19)"/><path class="cls-17" d="M25.22,728.42a4.59,4.59,0,1,1,4.83-4.58A4.71,4.71,0,0,1,25.22,728.42Z" transform="translate(0 -0.19)"/><path class="cls-17" d="M25.22,754.88a4.59,4.59,0,1,1,4.83-4.58A4.71,4.71,0,0,1,25.22,754.88Z" transform="translate(0 -0.19)"/><path class="cls-17" d="M25.22,781.34a4.59,4.59,0,1,1,4.83-4.58A4.71,4.71,0,0,1,25.22,781.34Z" transform="translate(0 -0.19)"/><path class="cls-17" d="M25.22,807.81a4.59,4.59,0,1,1,4.83-4.58A4.71,4.71,0,0,1,25.22,807.81Z" transform="translate(0 -0.19)"/><path class="cls-17" d="M25.22,834.27a4.59,4.59,0,1,1,4.83-4.59A4.71,4.71,0,0,1,25.22,834.27Z" transform="translate(0 -0.19)"/><path class="cls-17" d="M5.62,675.5a4.59,4.59,0,1,1,0-9.17,4.59,4.59,0,1,1,0,9.17Z" transform="translate(0 -0.19)"/><path class="cls-17" d="M5.62,702a4.59,4.59,0,1,1,0-9.16,4.59,4.59,0,1,1,0,9.16Z" transform="translate(0 -0.19)"/><path class="cls-17" d="M5.62,728.42a4.59,4.59,0,1,1,0-9.17,4.59,4.59,0,1,1,0,9.17Z" transform="translate(0 -0.19)"/><path class="cls-17" d="M5.62,754.88a4.59,4.59,0,1,1,0-9.17,4.59,4.59,0,1,1,0,9.17Z" transform="translate(0 -0.19)"/><path class="cls-17" d="M5.62,781.34a4.59,4.59,0,1,1,0-9.16,4.59,4.59,0,1,1,0,9.16Z" transform="translate(0 -0.19)"/><path class="cls-17" d="M5.62,807.81a4.59,4.59,0,1,1,0-9.17,4.59,4.59,0,1,1,0,9.17Z" transform="translate(0 -0.19)"/><path class="cls-17" d="M5.62,834.27a4.59,4.59,0,1,1,0-9.17,4.59,4.59,0,1,1,0,9.17Z" transform="translate(0 -0.19)"/><rect class="cls-7" x="834.94" y="583.45" width="168.11" height="17.62"/><rect class="cls-7" x="834.94" y="604.44" width="168.11" height="17.62"/><rect class="cls-7" x="834.94" y="625.44" width="168.11" height="17.62"/><rect class="cls-7" x="834.94" y="646.43" width="168.11" height="17.42"/><rect class="cls-7" x="834.94" y="499.48" width="168.11" height="17.62"/><rect class="cls-7" x="834.94" y="520.48" width="168.11" height="17.62"/><rect class="cls-7" x="834.94" y="541.47" width="168.11" height="17.62"/><rect class="cls-7" x="834.94" y="562.46" width="168.11" height="17.62"/><path class="cls-17" d="M794.33,509.07a4.52,4.52,0,1,1,4.94-4.5A4.73,4.73,0,0,1,794.33,509.07Z" transform="translate(0 -0.19)"/><path class="cls-17" d="M774.31,509.07a4.52,4.52,0,1,1,4.93-4.5A4.74,4.74,0,0,1,774.31,509.07Z" transform="translate(0 -0.19)"/><path class="cls-17" d="M774.31,535.06a4.52,4.52,0,1,1,4.93-4.5A4.73,4.73,0,0,1,774.31,535.06Z" transform="translate(0 -0.19)"/><path class="cls-17" d="M754.29,509.07a4.52,4.52,0,1,1,4.93-4.5A4.73,4.73,0,0,1,754.29,509.07Z" transform="translate(0 -0.19)"/><path class="cls-17" d="M754.29,535.06a4.52,4.52,0,1,1,4.93-4.5A4.72,4.72,0,0,1,754.29,535.06Z" transform="translate(0 -0.19)"/><path class="cls-17" d="M754.29,561.05a4.52,4.52,0,1,1,4.93-4.5A4.72,4.72,0,0,1,754.29,561.05Z" transform="translate(0 -0.19)"/><path class="cls-17" d="M734.26,509.07a4.52,4.52,0,1,1,4.94-4.5A4.73,4.73,0,0,1,734.26,509.07Z" transform="translate(0 -0.19)"/><path class="cls-17" d="M734.26,535.06a4.52,4.52,0,1,1,4.94-4.5A4.73,4.73,0,0,1,734.26,535.06Z" transform="translate(0 -0.19)"/><path class="cls-17" d="M734.26,561.05a4.52,4.52,0,1,1,4.94-4.5A4.73,4.73,0,0,1,734.26,561.05Z" transform="translate(0 -0.19)"/><path class="cls-17" d="M734.26,587.05a4.52,4.52,0,1,1,4.94-4.51A4.74,4.74,0,0,1,734.26,587.05Z" transform="translate(0 -0.19)"/><path class="cls-17" d="M714.24,509.07a4.52,4.52,0,1,1,4.93-4.5A4.73,4.73,0,0,1,714.24,509.07Z" transform="translate(0 -0.19)"/><path class="cls-17" d="M714.24,535.06a4.52,4.52,0,1,1,4.93-4.5A4.73,4.73,0,0,1,714.24,535.06Z" transform="translate(0 -0.19)"/><path class="cls-17" d="M714.24,561.05a4.52,4.52,0,1,1,4.93-4.5A4.73,4.73,0,0,1,714.24,561.05Z" transform="translate(0 -0.19)"/><path class="cls-17" d="M714.24,587.05a4.52,4.52,0,1,1,4.93-4.51A4.74,4.74,0,0,1,714.24,587.05Z" transform="translate(0 -0.19)"/><path class="cls-17" d="M714.24,613a4.52,4.52,0,1,1,4.93-4.51A4.74,4.74,0,0,1,714.24,613Z" transform="translate(0 -0.19)"/><path class="cls-17" d="M694.21,509.07a4.52,4.52,0,1,1,4.94-4.5A4.73,4.73,0,0,1,694.21,509.07Z" transform="translate(0 -0.19)"/><path class="cls-17" d="M694.21,535.06a4.52,4.52,0,1,1,4.94-4.5A4.72,4.72,0,0,1,694.21,535.06Z" transform="translate(0 -0.19)"/><path class="cls-17" d="M694.21,561.05a4.52,4.52,0,1,1,4.94-4.5A4.72,4.72,0,0,1,694.21,561.05Z" transform="translate(0 -0.19)"/><path class="cls-17" d="M694.21,587.05a4.53,4.53,0,1,1,4.95-4.51A4.73,4.73,0,0,1,694.21,587.05Z" transform="translate(0 -0.19)"/><path class="cls-17" d="M694.21,613a4.52,4.52,0,1,1,4.94-4.51A4.73,4.73,0,0,1,694.21,613Z" transform="translate(0 -0.19)"/><path class="cls-17" d="M694.21,639a4.52,4.52,0,1,1,4.94-4.5A4.72,4.72,0,0,1,694.21,639Z" transform="translate(0 -0.19)"/><path class="cls-17" d="M674.2,509.07a4.52,4.52,0,1,1,4.93-4.5A4.74,4.74,0,0,1,674.2,509.07Z" transform="translate(0 -0.19)"/><path class="cls-17" d="M674.2,535.06a4.52,4.52,0,1,1,4.93-4.5A4.74,4.74,0,0,1,674.2,535.06Z" transform="translate(0 -0.19)"/><path class="cls-17" d="M674.2,561.05a4.52,4.52,0,1,1,4.93-4.5A4.74,4.74,0,0,1,674.2,561.05Z" transform="translate(0 -0.19)"/><path class="cls-17" d="M674.2,587.05a4.52,4.52,0,1,1,4.93-4.51A4.75,4.75,0,0,1,674.2,587.05Z" transform="translate(0 -0.19)"/><path class="cls-17" d="M674.2,613a4.52,4.52,0,1,1,4.93-4.51A4.75,4.75,0,0,1,674.2,613Z" transform="translate(0 -0.19)"/><path class="cls-17" d="M674.2,639a4.52,4.52,0,1,1,4.93-4.5A4.74,4.74,0,0,1,674.2,639Z" transform="translate(0 -0.19)"/><path class="cls-17" d="M674.2,665a4.52,4.52,0,1,1,4.93-4.5A4.74,4.74,0,0,1,674.2,665Z" transform="translate(0 -0.19)"/><path class="cls-7" d="M953,176.05a3,3,0,0,1,2.3,2.95,1.49,1.49,0,0,1,0,.21,1.36,1.36,0,0,1,0,.2,2.81,2.81,0,1,1-5.61,0c0-.07,0-.13,0-.2s0-.14,0-.21a3.11,3.11,0,0,1,.8-2.09,167.43,167.43,0,0,0-61.69,38.15,2.89,2.89,0,0,1-.77.75,167.31,167.31,0,0,0-32.74,45.42,3.06,3.06,0,0,1,1.12,2.39,2.91,2.91,0,0,1-2.8,3,2.55,2.55,0,0,1-.78-.13,164.65,164.65,0,0,0-13.11,46.74,3.19,3.19,0,0,1,.21,1.16,3.15,3.15,0,0,1-.55,1.77q-.68,6.21-.89,12.55a3.08,3.08,0,0,1-.1,5.27v.34h15.22a3,3,0,1,1,2.8-3,2.91,2.91,0,0,1-2.8,3h16.48a3,3,0,1,1,2.81-3,2.91,2.91,0,0,1-2.81,3h16.48a3,3,0,1,1,2.81-3,2.91,2.91,0,0,1-2.81,3H903a3,3,0,1,1,2.81-3,2.92,2.92,0,0,1-2.81,3h16.49a3,3,0,1,1,2.8-3,2.92,2.92,0,0,1-2.8,3H936a3,3,0,1,1,2.8-3,2.92,2.92,0,0,1-2.8,3h16.48a3,3,0,1,1,2.8-3,2.92,2.92,0,0,1-2.8,3H969a3,3,0,1,1,2.8-3,2.92,2.92,0,0,1-2.8,3h16.48a3,3,0,1,1,2.8-3,2.92,2.92,0,0,1-2.8,3h16.48a3,3,0,1,1,2.81-3,2.91,2.91,0,0,1-2.81,3h3.72V167.61A167.6,167.6,0,0,0,953,176.05ZM853.58,317.39a3,3,0,1,1,2.8-3A2.9,2.9,0,0,1,853.58,317.39Zm0-16.92a3,3,0,1,1,2.8-3A2.91,2.91,0,0,1,853.58,300.47Zm0-16.93a3,3,0,1,1,2.8-3A2.9,2.9,0,0,1,853.58,283.54Zm16.48,33.85a3,3,0,1,1,2.81-3A2.9,2.9,0,0,1,870.06,317.39Zm0-16.92a3,3,0,1,1,2.81-3A2.91,2.91,0,0,1,870.06,300.47Zm0-16.93a3,3,0,1,1,2.81-3A2.9,2.9,0,0,1,870.06,283.54Zm0-16.92a3,3,0,1,1,2.81-3A2.91,2.91,0,0,1,870.06,266.62Zm2.81-19.52a2.81,2.81,0,1,1-5.61,0,1,1,0,0,0,0-.4,2.81,2.81,0,1,1,5.61,0c0,.07,0,.13,0,.2S872.87,247,872.87,247.1Zm13.67,70.29a3,3,0,1,1,2.81-3A2.9,2.9,0,0,1,886.54,317.39Zm0-16.92a3,3,0,1,1,2.81-3A2.91,2.91,0,0,1,886.54,300.47Zm0-16.93a3,3,0,1,1,2.81-3A2.9,2.9,0,0,1,886.54,283.54Zm0-16.92a3,3,0,1,1,2.81-3A2.91,2.91,0,0,1,886.54,266.62Zm2.81-19.52a2.81,2.81,0,1,1-5.61,0,1,1,0,0,0,0-.4,2.81,2.81,0,1,1,5.61,0c0,.07,0,.13,0,.2S889.35,247,889.35,247.1Zm0-16.92a2.81,2.81,0,1,1-5.61,0,1.49,1.49,0,0,1,0-.21,1.36,1.36,0,0,1,0-.2,2.81,2.81,0,1,1,5.61,0c0,.07,0,.13,0,.2S889.35,230.11,889.35,230.18ZM903,317.39a3,3,0,1,1,2.81-3A2.91,2.91,0,0,1,903,317.39Zm0-16.92a3,3,0,1,1,2.81-3A2.92,2.92,0,0,1,903,300.47Zm0-16.93a3,3,0,1,1,2.81-3A2.91,2.91,0,0,1,903,283.54Zm0-16.92a3,3,0,1,1,2.81-3A2.91,2.91,0,0,1,903,266.62Zm2.81-19.52a2.81,2.81,0,1,1-5.61,0,1,1,0,0,0,0-.4,2.81,2.81,0,1,1,5.61,0c0,.07,0,.13,0,.2S905.83,247,905.83,247.1Zm0-16.92a2.81,2.81,0,1,1-5.61,0,1.49,1.49,0,0,1,0-.21,1.36,1.36,0,0,1,0-.2,2.81,2.81,0,1,1,5.61,0c0,.07,0,.13,0,.2S905.83,230.11,905.83,230.18Zm0-16.93a2.81,2.81,0,1,1-5.61,0,1.36,1.36,0,0,1,0-.2,1.49,1.49,0,0,1,0-.21,2.81,2.81,0,1,1,5.61,0c0,.07,0,.14,0,.21S905.83,213.18,905.83,213.25Zm13.68,104.14a3,3,0,1,1,2.8-3A2.91,2.91,0,0,1,919.51,317.39Zm0-16.92a3,3,0,1,1,2.8-3A2.92,2.92,0,0,1,919.51,300.47Zm0-16.93a3,3,0,1,1,2.8-3A2.91,2.91,0,0,1,919.51,283.54Zm0-16.92a3,3,0,1,1,2.8-3A2.92,2.92,0,0,1,919.51,266.62Zm2.8-19.52a2.81,2.81,0,1,1-5.61,0c0-.07,0-.13,0-.2s0-.13,0-.2a2.81,2.81,0,1,1,5.61,0c0,.07,0,.13,0,.2S922.31,247,922.31,247.1Zm0-16.92a2.81,2.81,0,1,1-5.61,0c0-.07,0-.14,0-.21s0-.13,0-.2a2.81,2.81,0,1,1,5.61,0c0,.07,0,.13,0,.2S922.31,230.11,922.31,230.18Zm0-16.93a2.81,2.81,0,1,1-5.61,0c0-.07,0-.13,0-.2s0-.14,0-.21a2.81,2.81,0,1,1,5.61,0c0,.07,0,.14,0,.21S922.31,213.18,922.31,213.25Zm0-16.92a2.81,2.81,0,1,1-5.61,0c0-.07,0-.14,0-.21s0-.13,0-.2a2.81,2.81,0,1,1,5.61,0c0,.07,0,.14,0,.2S922.31,196.26,922.31,196.33ZM936,317.39a3,3,0,1,1,2.8-3A2.91,2.91,0,0,1,936,317.39Zm0-16.92a3,3,0,1,1,2.8-3A2.92,2.92,0,0,1,936,300.47Zm0-16.93a3,3,0,1,1,2.8-3A2.91,2.91,0,0,1,936,283.54Zm0-16.92c-1.55,0-2.81-1-2.81-2.16s1.26-2.17,2.81-2.17,2.8,1,2.8,2.17S937.53,266.62,936,266.62Zm2.8-19.52a2.81,2.81,0,1,1-5.61,0c0-.07,0-.13,0-.2s0-.13,0-.2a2.81,2.81,0,1,1,5.61,0,1,1,0,0,0,0,.4Zm0-16.92a2.81,2.81,0,1,1-5.61,0c0-.07,0-.14,0-.21s0-.13,0-.2a2.81,2.81,0,1,1,5.61,0,1.36,1.36,0,0,1,0,.2A1.49,1.49,0,0,1,938.79,230.18Zm0-16.93a2.81,2.81,0,1,1-5.61,0c0-.07,0-.13,0-.2s0-.14,0-.21a2.81,2.81,0,1,1,5.61,0,1.49,1.49,0,0,1,0,.21A1.36,1.36,0,0,1,938.79,213.25Zm0-16.92a2.81,2.81,0,1,1-5.61,0c0-.07,0-.14,0-.21s0-.13,0-.2a2.81,2.81,0,1,1,5.61,0,1.23,1.23,0,0,1,0,.2A1.49,1.49,0,0,1,938.79,196.33Zm13.68,121.06a3,3,0,1,1,2.8-3A2.91,2.91,0,0,1,952.47,317.39Zm0-16.92a3,3,0,1,1,2.8-3A2.92,2.92,0,0,1,952.47,300.47Zm0-16.93a3,3,0,1,1,2.8-3A2.91,2.91,0,0,1,952.47,283.54Zm0-16.92a3,3,0,1,1,2.8-3A2.92,2.92,0,0,1,952.47,266.62Zm2.8-19.52a2.81,2.81,0,1,1-5.61,0c0-.07,0-.13,0-.2s0-.13,0-.2a2.81,2.81,0,1,1,5.61,0,1,1,0,0,0,0,.4Zm0-16.92a2.81,2.81,0,1,1-5.61,0c0-.07,0-.14,0-.21s0-.13,0-.2a2.81,2.81,0,1,1,5.61,0,1.36,1.36,0,0,1,0,.2A1.49,1.49,0,0,1,955.27,230.18Zm0-16.93a2.81,2.81,0,1,1-5.61,0c0-.07,0-.13,0-.2s0-.14,0-.21a2.81,2.81,0,1,1,5.61,0,1.49,1.49,0,0,1,0,.21A1.36,1.36,0,0,1,955.27,213.25Zm0-16.92a2.81,2.81,0,1,1-5.61,0c0-.07,0-.14,0-.21s0-.13,0-.2a2.81,2.81,0,1,1,5.61,0,1.23,1.23,0,0,1,0,.2A1.49,1.49,0,0,1,955.27,196.33ZM969,317.39a3,3,0,1,1,2.8-3A2.91,2.91,0,0,1,969,317.39Zm0-16.92a3,3,0,1,1,2.8-3A2.92,2.92,0,0,1,969,300.47Zm0-16.93a3,3,0,1,1,2.8-3A2.91,2.91,0,0,1,969,283.54Zm0-16.92a3,3,0,1,1,2.8-3A2.92,2.92,0,0,1,969,266.62Zm2.8-19.52a2.81,2.81,0,1,1-5.61,0c0-.07,0-.13,0-.2s0-.13,0-.2a2.81,2.81,0,1,1,5.61,0,1,1,0,0,0,0,.4Zm0-16.92a2.81,2.81,0,1,1-5.61,0c0-.07,0-.14,0-.21s0-.13,0-.2a2.81,2.81,0,1,1,5.61,0,1.36,1.36,0,0,1,0,.2A1.49,1.49,0,0,1,971.75,230.18Zm0-16.93a2.81,2.81,0,1,1-5.61,0c0-.07,0-.13,0-.2s0-.14,0-.21a2.81,2.81,0,1,1,5.61,0,1.49,1.49,0,0,1,0,.21A1.36,1.36,0,0,1,971.75,213.25Zm0-16.92a2.81,2.81,0,1,1-5.61,0c0-.07,0-.14,0-.21s0-.13,0-.2a2.81,2.81,0,1,1,5.61,0,1.23,1.23,0,0,1,0,.2A1.49,1.49,0,0,1,971.75,196.33Zm0-16.92a2.81,2.81,0,1,1-5.61,0c0-.07,0-.13,0-.2s0-.14,0-.21a2.81,2.81,0,1,1,5.61,0,1.49,1.49,0,0,1,0,.21A1.36,1.36,0,0,1,971.75,179.41Zm13.68,136.07c-1.55,0-2.81-.92-2.81-2.05s1.26-2.05,2.81-2.05,2.8.92,2.8,2.05S987,315.48,985.43,315.48Zm0-15a3,3,0,1,1,2.8-3A2.92,2.92,0,0,1,985.43,300.47Zm0-16.93a3,3,0,1,1,2.8-3A2.91,2.91,0,0,1,985.43,283.54Zm0-16.92a3,3,0,1,1,2.8-3A2.92,2.92,0,0,1,985.43,266.62Zm2.8-19.52a2.81,2.81,0,1,1-5.61,0c0-.07,0-.13,0-.2s0-.13,0-.2a2.81,2.81,0,1,1,5.61,0c0,.07,0,.13,0,.2S988.23,247,988.23,247.1Zm0-16.92a2.81,2.81,0,1,1-5.61,0c0-.07,0-.14,0-.21s0-.13,0-.2a2.81,2.81,0,1,1,5.61,0c0,.07,0,.13,0,.2S988.23,230.11,988.23,230.18Zm0-16.93a2.81,2.81,0,1,1-5.61,0c0-.07,0-.13,0-.2s0-.14,0-.21a2.81,2.81,0,1,1,5.61,0c0,.07,0,.14,0,.21S988.23,213.18,988.23,213.25Zm0-16.92a2.81,2.81,0,1,1-5.61,0c0-.07,0-.14,0-.21s0-.13,0-.2a2.81,2.81,0,1,1,5.61,0c0,.07,0,.14,0,.2S988.23,196.26,988.23,196.33Zm0-16.92a2.81,2.81,0,1,1-5.61,0c0-.07,0-.13,0-.2s0-.14,0-.21a2.81,2.81,0,1,1,5.61,0c0,.07,0,.14,0,.21S988.23,179.34,988.23,179.41Zm13.68,138a3,3,0,1,1,2.81-3A2.9,2.9,0,0,1,1001.91,317.39Zm0-16.92a3,3,0,1,1,2.81-3A2.91,2.91,0,0,1,1001.91,300.47Zm0-16.93a3,3,0,1,1,2.81-3A2.9,2.9,0,0,1,1001.91,283.54Zm0-16.92a3,3,0,1,1,2.81-3A2.91,2.91,0,0,1,1001.91,266.62Zm2.81-19.52a2.81,2.81,0,1,1-5.61,0,1,1,0,0,0,0-.4,2.81,2.81,0,1,1,5.61,0c0,.07,0,.13,0,.2S1004.72,247,1004.72,247.1Zm0-16.92a2.81,2.81,0,1,1-5.61,0,1.49,1.49,0,0,1,0-.21,1.36,1.36,0,0,1,0-.2,2.81,2.81,0,1,1,5.61,0c0,.07,0,.13,0,.2S1004.72,230.11,1004.72,230.18Zm0-16.93a2.81,2.81,0,1,1-5.61,0,1.36,1.36,0,0,1,0-.2,1.49,1.49,0,0,1,0-.21,2.81,2.81,0,1,1,5.61,0c0,.07,0,.14,0,.21S1004.72,213.18,1004.72,213.25Zm0-16.92a2.81,2.81,0,1,1-5.61,0,1.49,1.49,0,0,1,0-.21,1.23,1.23,0,0,1,0-.2,2.81,2.81,0,1,1,5.61,0c0,.07,0,.14,0,.2S1004.72,196.26,1004.72,196.33Zm0-16.92a2.81,2.81,0,1,1-5.61,0,1.36,1.36,0,0,1,0-.2,1.49,1.49,0,0,1,0-.21,2.81,2.81,0,1,1,5.61,0c0,.07,0,.14,0,.21S1004.72,179.34,1004.72,179.41Z" transform="translate(0 -0.19)"/><rect class="cls-6" x="167.56" y="333.32" width="166.71" height="167.27" transform="translate(-166.05 667.68) rotate(-90)"/><path class="cls-7" d="M167.27,667H334.55V500.31C242.16,500.31,167.27,575,167.27,667Zm151.94-35.16a38.18,38.18,0,1,1-7-53.6A38.25,38.25,0,0,1,319.21,631.85Zm11.45-67.31a3.15,3.15,0,0,1-4.42.59A57.22,57.22,0,0,0,256.61,656a3.16,3.16,0,0,1-3.85,5,63.54,63.54,0,0,1,77.33-100.85A3.14,3.14,0,0,1,330.66,564.54Z" transform="translate(0 -0.19)"/><path class="cls-7" d="M308.35,583.27A31.94,31.94,0,1,0,314.21,628,31.95,31.95,0,0,0,308.35,583.27Z" transform="translate(0 -0.19)"/><path class="cls-4" d="M285,417h0a34,34,0,0,1-34,33.94h0a34,34,0,0,1-34-33.94h0a34,34,0,0,1,34-33.93h0A34,34,0,0,1,285,417Z" transform="translate(0 -0.19)"/><rect class="cls-7" x="0.28" y="500.03" width="166.71" height="167.27" transform="translate(-500.03 667.11) rotate(-90)"/><polygon class="cls-8" points="167.28 500.12 0 666.83 0 500.12 167.28 500.12"/><path class="cls-5" d="M167.27,500.31H0V333.6H0C92.38,333.6,167.27,408.24,167.27,500.31Z" transform="translate(0 -0.19)"/><path class="cls-20" d="M546.11,327h0a34,34,0,0,1-34.05,33.94h0A34,34,0,0,1,478,327h0a34,34,0,0,1,34-33.94h0A34,34,0,0,1,546.11,327Z" transform="translate(0 -0.19)"/><path class="cls-6" d="M542.65,665.61H459.1a41.8,41.8,0,0,1,83.55,0Z" transform="translate(0 -0.19)"/><path class="cls-4" d="M785.74,416h0a34,34,0,0,1-34.06,33.93h0a34,34,0,0,1-34-33.93h0a34,34,0,0,1,34-33.94h0A34,34,0,0,1,785.74,416Z" transform="translate(0 -0.19)"/><path class="cls-4" d="M449.37,659.61a3,3,0,1,1-3.17,3A3.09,3.09,0,0,1,449.37,659.61Z" transform="translate(0 -0.19)"/><path class="cls-4" d="M449.37,642.28a3,3,0,1,1-3.17,3A3.09,3.09,0,0,1,449.37,642.28Z" transform="translate(0 -0.19)"/><path class="cls-4" d="M449.37,625a3,3,0,1,1-3.17,3A3.09,3.09,0,0,1,449.37,625Z" transform="translate(0 -0.19)"/><path class="cls-4" d="M449.37,607.63a3,3,0,1,1-3.17,3A3.09,3.09,0,0,1,449.37,607.63Z" transform="translate(0 -0.19)"/><path class="cls-4" d="M449.37,590.3a3,3,0,1,1-3.17,3A3.09,3.09,0,0,1,449.37,590.3Z" transform="translate(0 -0.19)"/><path class="cls-4" d="M449.37,573a3,3,0,1,1-3.17,3A3.09,3.09,0,0,1,449.37,573Z" transform="translate(0 -0.19)"/><path class="cls-4" d="M449.37,555.65a3,3,0,1,1-3.17,3A3.09,3.09,0,0,1,449.37,555.65Z" transform="translate(0 -0.19)"/><path class="cls-4" d="M462.23,659.61a3,3,0,1,1-3.17,3A3.09,3.09,0,0,1,462.23,659.61Z" transform="translate(0 -0.19)"/><path class="cls-4" d="M462.23,642.28a3,3,0,1,1-3.16,3A3.09,3.09,0,0,1,462.23,642.28Z" transform="translate(0 -0.19)"/><path class="cls-4" d="M462.23,625a3,3,0,1,1-3.16,3A3.09,3.09,0,0,1,462.23,625Z" transform="translate(0 -0.19)"/><path class="cls-4" d="M462.23,607.63a3,3,0,1,1-3.17,3A3.09,3.09,0,0,1,462.23,607.63Z" transform="translate(0 -0.19)"/><path class="cls-4" d="M462.23,590.3a3,3,0,1,1-3.17,3A3.09,3.09,0,0,1,462.23,590.3Z" transform="translate(0 -0.19)"/><path class="cls-4" d="M462.23,573a3,3,0,1,1-3.17,3A3.09,3.09,0,0,1,462.23,573Z" transform="translate(0 -0.19)"/><path class="cls-4" d="M462.23,555.65a3,3,0,1,1-3.17,3A3.09,3.09,0,0,1,462.23,555.65Z" transform="translate(0 -0.19)"/><path class="cls-4" d="M475.1,659.61a3,3,0,1,1-3.17,3A3.08,3.08,0,0,1,475.1,659.61Z" transform="translate(0 -0.19)"/><path class="cls-4" d="M475.09,642.28a3,3,0,1,1-3.17,3A3.09,3.09,0,0,1,475.09,642.28Z" transform="translate(0 -0.19)"/><path class="cls-4" d="M475.09,625a3,3,0,1,1-3.17,3A3.09,3.09,0,0,1,475.09,625Z" transform="translate(0 -0.19)"/><path class="cls-4" d="M475.09,607.63a3,3,0,1,1-3.17,3A3.09,3.09,0,0,1,475.09,607.63Z" transform="translate(0 -0.19)"/><path class="cls-4" d="M475.09,590.3a3,3,0,1,1-3.17,3A3.09,3.09,0,0,1,475.09,590.3Z" transform="translate(0 -0.19)"/><path class="cls-4" d="M475.09,573a3,3,0,1,1-3.17,3A3.09,3.09,0,0,1,475.09,573Z" transform="translate(0 -0.19)"/><path class="cls-4" d="M475.09,555.65a3,3,0,1,1-3.17,3A3.09,3.09,0,0,1,475.09,555.65Z" transform="translate(0 -0.19)"/><path class="cls-4" d="M488,659.61a3,3,0,1,1-3.17,3A3.09,3.09,0,0,1,488,659.61Z" transform="translate(0 -0.19)"/><path class="cls-4" d="M488,642.28a3,3,0,1,1-3.17,3A3.09,3.09,0,0,1,488,642.28Z" transform="translate(0 -0.19)"/><path class="cls-4" d="M488,625a3,3,0,1,1-3.17,3A3.09,3.09,0,0,1,488,625Z" transform="translate(0 -0.19)"/><path class="cls-4" d="M488,607.63a3,3,0,1,1-3.17,3A3.09,3.09,0,0,1,488,607.63Z" transform="translate(0 -0.19)"/><path class="cls-4" d="M488,590.3a3,3,0,1,1-3.17,3A3.09,3.09,0,0,1,488,590.3Z" transform="translate(0 -0.19)"/><path class="cls-4" d="M488,573a3,3,0,1,1-3.17,3A3.09,3.09,0,0,1,488,573Z" transform="translate(0 -0.19)"/><path class="cls-4" d="M488,555.65a3,3,0,1,1-3.17,3A3.09,3.09,0,0,1,488,555.65Z" transform="translate(0 -0.19)"/><path class="cls-4" d="M500.82,590.3a3,3,0,1,1-3.17,3A3.09,3.09,0,0,1,500.82,590.3Z" transform="translate(0 -0.19)"/><path class="cls-4" d="M500.82,573a3,3,0,1,1-3.17,3A3.09,3.09,0,0,1,500.82,573Z" transform="translate(0 -0.19)"/><path class="cls-4" d="M500.82,555.65a3,3,0,1,1-3.17,3A3.08,3.08,0,0,1,500.82,555.65Z" transform="translate(0 -0.19)"/><path class="cls-4" d="M513.68,590.3a3,3,0,1,1-3.17,3A3.09,3.09,0,0,1,513.68,590.3Z" transform="translate(0 -0.19)"/><path class="cls-4" d="M513.68,573a3,3,0,1,1-3.17,3A3.09,3.09,0,0,1,513.68,573Z" transform="translate(0 -0.19)"/><path class="cls-4" d="M513.68,555.65a3,3,0,1,1-3.17,3A3.09,3.09,0,0,1,513.68,555.65Z" transform="translate(0 -0.19)"/><path class="cls-4" d="M526.54,590.3a3,3,0,1,1-3.16,3A3.09,3.09,0,0,1,526.54,590.3Z" transform="translate(0 -0.19)"/><path class="cls-4" d="M526.54,573a3,3,0,1,1-3.16,3A3.09,3.09,0,0,1,526.54,573Z" transform="translate(0 -0.19)"/><path class="cls-4" d="M526.54,555.64a3,3,0,1,1-3.16,3A3.1,3.1,0,0,1,526.54,555.64Z" transform="translate(0 -0.19)"/><path class="cls-4" d="M539.41,590.3a3,3,0,1,1-3.17,3A3.08,3.08,0,0,1,539.41,590.3Z" transform="translate(0 -0.19)"/><path class="cls-4" d="M539.41,573a3,3,0,1,1-3.17,3A3.08,3.08,0,0,1,539.41,573Z" transform="translate(0 -0.19)"/><path class="cls-4" d="M539.41,555.64a3,3,0,1,1-3.17,3A3.09,3.09,0,0,1,539.41,555.64Z" transform="translate(0 -0.19)"/><path class="cls-4" d="M552.27,590.3a3,3,0,1,1-3.17,3A3.09,3.09,0,0,1,552.27,590.3Z" transform="translate(0 -0.19)"/><path class="cls-4" d="M552.27,573a3,3,0,1,1-3.17,3A3.09,3.09,0,0,1,552.27,573Z" transform="translate(0 -0.19)"/><path class="cls-4" d="M552.27,555.64a3,3,0,1,1-3.17,3A3.1,3.1,0,0,1,552.27,555.64Z" transform="translate(0 -0.19)"/><rect class="cls-4" x="277.67" y="800.77" width="50.97" height="0.58" transform="translate(-477.21 447.85) rotate(-44.93)"/><polygon class="cls-4" points="262.17 826.83 261.75 826.42 328.7 759.47 329.12 759.88 262.17 826.83"/><polygon class="cls-4" points="246.72 826.84 246.31 826.43 328.71 744.02 329.13 744.43 246.72 826.84"/><rect class="cls-4" x="214.43" y="777.59" width="131.14" height="0.59" transform="translate(-468.04 425.64) rotate(-45)"/><polygon class="cls-4" points="220.94 821.73 220.53 821.31 323.64 718.2 324.06 718.62 220.94 821.73"/><polygon class="cls-4" points="210.6 816.63 210.19 816.21 319.01 707.38 319.43 707.8 210.6 816.63"/><rect class="cls-4" x="175.46" y="755.73" width="160.16" height="0.58" transform="translate(-461.04 404.59) rotate(-45.21)"/><rect class="cls-4" x="167.74" y="748" width="160.16" height="0.58" transform="translate(-456.11 393.36) rotate(-44.93)"/><rect class="cls-4" x="160.01" y="740.28" width="160.16" height="0.58" transform="translate(-453 385.82) rotate(-44.94)"/><polygon class="cls-4" points="179.72 785.74 179.3 785.32 288.13 676.49 288.54 676.91 179.72 785.74"/><polygon class="cls-4" points="174.61 775.39 174.2 774.98 277.31 671.87 277.73 672.28 174.61 775.39"/><polygon class="cls-4" points="169.48 765.09 169.07 764.67 266.97 666.77 267.39 667.18 169.48 765.09"/><polygon class="cls-4" points="166.93 752.2 166.51 751.79 254.07 664.22 254.49 664.63 166.93 752.2"/><rect class="cls-4" x="155.44" y="700.39" width="94.68" height="0.59" transform="translate(-435.2 346.87) rotate(-44.86)"/><polygon class="cls-4" points="174.66 713.58 174.25 713.16 215.44 671.97 215.86 672.38 174.66 713.58"/><path class="cls-4" d="M128.24,134.05h0a22.69,22.69,0,0,1,32.1,0h0a22.71,22.71,0,0,1,0,32.1h0a22.69,22.69,0,0,1-32.1,0h0A22.71,22.71,0,0,1,128.24,134.05Z" transform="translate(0 -0.19)"/><path class="cls-5" d="M504.09,838.24h0c93.27-3.47,166.14-79.9,162.76-170.71h0c-93.27,3.47-166.15,79.9-162.77,170.71Z" transform="translate(0 -0.19)"/><path class="cls-15" d="M.05,332.94V500.05a83.6,83.6,0,0,0,80.69-83.56A83.59,83.59,0,0,0,.05,332.94Z" transform="translate(0 -0.19)"/><polygon class="cls-5" points="43.47 541.31 43.47 653.26 154.13 541.31 43.47 541.31"/><rect class="cls-15" x="78.35" y="576.48" width="64.66" height="64.64" transform="translate(719.48 497.94) rotate(90)"/><path class="cls-4" d="M335.59,442.69V553.81H446.71V442.69Zm55.56,7.46,9.91,17.17H381.23Zm-9.92,86.58,9.92-17.17,9.91,17.17Zm-12.81-24.44,22.73-39.36,22.73,39.36Z" transform="translate(0 -0.19)"/><polygon class="cls-4" points="373 509.46 409.29 509.46 391.15 478.04 373 509.46"/><path class="cls-20" d="M166.51,1002.11h-2c0-43.48-36.46-78.86-81.27-78.86S2,958.63,2,1002.11H0c0-44.61,37.35-80.89,83.26-80.89S166.51,957.5,166.51,1002.11Z" transform="translate(0 -0.19)"/><path class="cls-6" d="M17.32,1001.91c0-35.29,29.47-63.9,65.82-63.9S149,966.62,149,1001.91Z" transform="translate(0 -0.19)"/><polygon class="cls-20" points="97.01 994.05 112.34 966.86 127.67 994.05 97.01 994.05"/><path class="cls-4" d="M524.53,531.36V321c0-1.53,1.65-2.78,3.68-2.78h0c2,0,3.68,1.25,3.68,2.78v210.4c0,1.53-1.65,2.78-3.68,2.78h0C526.18,534.14,524.53,532.89,524.53,531.36Z" transform="translate(0 -0.19)"/><path class="cls-4" d="M503.37,545.85V442.56a5.16,5.16,0,0,1,5.29-5h0a5.16,5.16,0,0,1,5.29,5V545.85a5.17,5.17,0,0,1-5.29,5h0A5.17,5.17,0,0,1,503.37,545.85Z" transform="translate(0 -0.19)"/><path class="cls-21" d="M492.79,548.06V444.76a5.16,5.16,0,0,1,5.29-5h0a5.16,5.16,0,0,1,5.29,5v103.3a5.16,5.16,0,0,1-5.29,5h0A5.16,5.16,0,0,1,492.79,548.06Z" transform="translate(0 -0.19)"/><path class="cls-4" d="M471.88,544V377.88a10.21,10.21,0,0,1,10.46-9.94h0a10.21,10.21,0,0,1,10.45,9.94V544A10.21,10.21,0,0,1,482.34,554h0A10.21,10.21,0,0,1,471.88,544Z" transform="translate(0 -0.19)"/><path class="cls-4" d="M482.34,359.35a10,10,0,1,1,10.45-10A10.21,10.21,0,0,1,482.34,359.35Z" transform="translate(0 -0.19)"/><path class="cls-21" d="M523.58,509.55V397.24a5.3,5.3,0,0,0-10.58,0V509.55Z" transform="translate(0 -0.19)"/><path class="cls-17" d="M832.7,674.87a4.59,4.59,0,1,1,4.83-4.58A4.71,4.71,0,0,1,832.7,674.87Z" transform="translate(0 -0.19)"/><path class="cls-17" d="M832.7,701.33a4.59,4.59,0,1,1,4.83-4.59A4.71,4.71,0,0,1,832.7,701.33Z" transform="translate(0 -0.19)"/><path class="cls-17" d="M832.7,727.79a4.59,4.59,0,1,1,4.83-4.58A4.71,4.71,0,0,1,832.7,727.79Z" transform="translate(0 -0.19)"/><path class="cls-17" d="M832.7,754.26a4.6,4.6,0,1,1,4.83-4.59A4.72,4.72,0,0,1,832.7,754.26Z" transform="translate(0 -0.19)"/><path class="cls-17" d="M832.7,780.71a4.59,4.59,0,1,1,4.83-4.58A4.71,4.71,0,0,1,832.7,780.71Z" transform="translate(0 -0.19)"/><path class="cls-17" d="M832.7,807.18a4.59,4.59,0,1,1,4.83-4.58A4.71,4.71,0,0,1,832.7,807.18Z" transform="translate(0 -0.19)"/><path class="cls-17" d="M832.7,833.64a4.59,4.59,0,1,1,4.83-4.59A4.71,4.71,0,0,1,832.7,833.64Z" transform="translate(0 -0.19)"/><path class="cls-17" d="M813.1,674.87a4.59,4.59,0,1,1,4.83-4.58A4.71,4.71,0,0,1,813.1,674.87Z" transform="translate(0 -0.19)"/><path class="cls-17" d="M813.1,701.33a4.59,4.59,0,1,1,4.82-4.59A4.71,4.71,0,0,1,813.1,701.33Z" transform="translate(0 -0.19)"/><path class="cls-17" d="M813.1,727.79a4.59,4.59,0,1,1,4.82-4.58A4.71,4.71,0,0,1,813.1,727.79Z" transform="translate(0 -0.19)"/><path class="cls-17" d="M813.1,754.26a4.6,4.6,0,1,1,4.83-4.59A4.72,4.72,0,0,1,813.1,754.26Z" transform="translate(0 -0.19)"/><path class="cls-17" d="M813.1,780.71a4.59,4.59,0,1,1,4.82-4.58A4.71,4.71,0,0,1,813.1,780.71Z" transform="translate(0 -0.19)"/><path class="cls-17" d="M813.1,807.18a4.59,4.59,0,1,1,4.83-4.58A4.71,4.71,0,0,1,813.1,807.18Z" transform="translate(0 -0.19)"/><path class="cls-17" d="M813.1,833.64a4.59,4.59,0,1,1,4.83-4.59A4.71,4.71,0,0,1,813.1,833.64Z" transform="translate(0 -0.19)"/><path class="cls-17" d="M793.49,674.87a4.59,4.59,0,1,1,4.84-4.58A4.71,4.71,0,0,1,793.49,674.87Z" transform="translate(0 -0.19)"/><path class="cls-17" d="M793.49,701.33a4.59,4.59,0,1,1,4.84-4.59A4.71,4.71,0,0,1,793.49,701.33Z" transform="translate(0 -0.19)"/><path class="cls-17" d="M793.49,727.79a4.59,4.59,0,1,1,4.84-4.58A4.71,4.71,0,0,1,793.49,727.79Z" transform="translate(0 -0.19)"/><path class="cls-17" d="M793.49,754.26a4.6,4.6,0,1,1,4.84-4.59A4.71,4.71,0,0,1,793.49,754.26Z" transform="translate(0 -0.19)"/><path class="cls-17" d="M793.49,780.71a4.59,4.59,0,1,1,4.84-4.58A4.71,4.71,0,0,1,793.49,780.71Z" transform="translate(0 -0.19)"/><path class="cls-17" d="M793.49,807.18a4.59,4.59,0,1,1,4.84-4.58A4.71,4.71,0,0,1,793.49,807.18Z" transform="translate(0 -0.19)"/><path class="cls-17" d="M793.49,833.64a4.59,4.59,0,1,1,4.84-4.59A4.71,4.71,0,0,1,793.49,833.64Z" transform="translate(0 -0.19)"/><path class="cls-17" d="M773.89,674.87a4.59,4.59,0,1,1,4.83-4.58A4.71,4.71,0,0,1,773.89,674.87Z" transform="translate(0 -0.19)"/><path class="cls-17" d="M773.89,701.33a4.59,4.59,0,1,1,4.83-4.59A4.71,4.71,0,0,1,773.89,701.33Z" transform="translate(0 -0.19)"/><path class="cls-17" d="M773.89,727.79a4.59,4.59,0,1,1,4.83-4.58A4.71,4.71,0,0,1,773.89,727.79Z" transform="translate(0 -0.19)"/><path class="cls-17" d="M773.89,754.26a4.6,4.6,0,1,1,4.83-4.59A4.72,4.72,0,0,1,773.89,754.26Z" transform="translate(0 -0.19)"/><path class="cls-17" d="M773.89,780.71a4.59,4.59,0,1,1,4.83-4.58A4.71,4.71,0,0,1,773.89,780.71Z" transform="translate(0 -0.19)"/><path class="cls-17" d="M773.89,807.18a4.59,4.59,0,1,1,4.83-4.58A4.71,4.71,0,0,1,773.89,807.18Z" transform="translate(0 -0.19)"/><path class="cls-17" d="M773.89,833.64a4.59,4.59,0,1,1,4.83-4.59A4.71,4.71,0,0,1,773.89,833.64Z" transform="translate(0 -0.19)"/><path class="cls-17" d="M754.29,674.87a4.59,4.59,0,1,1,4.82-4.58A4.71,4.71,0,0,1,754.29,674.87Z" transform="translate(0 -0.19)"/><path class="cls-17" d="M754.29,701.33a4.59,4.59,0,1,1,4.82-4.59A4.71,4.71,0,0,1,754.29,701.33Z" transform="translate(0 -0.19)"/><path class="cls-17" d="M754.29,727.79a4.59,4.59,0,1,1,4.82-4.58A4.71,4.71,0,0,1,754.29,727.79Z" transform="translate(0 -0.19)"/><path class="cls-17" d="M754.29,754.26a4.6,4.6,0,1,1,4.83-4.59A4.72,4.72,0,0,1,754.29,754.26Z" transform="translate(0 -0.19)"/><path class="cls-17" d="M754.29,780.71a4.59,4.59,0,1,1,4.82-4.58A4.71,4.71,0,0,1,754.29,780.71Z" transform="translate(0 -0.19)"/><path class="cls-17" d="M754.29,807.18a4.59,4.59,0,1,1,4.82-4.58A4.71,4.71,0,0,1,754.29,807.18Z" transform="translate(0 -0.19)"/><path class="cls-17" d="M754.29,833.64a4.59,4.59,0,1,1,4.82-4.59A4.71,4.71,0,0,1,754.29,833.64Z" transform="translate(0 -0.19)"/><path class="cls-17" d="M734.68,674.87a4.59,4.59,0,1,1,4.83-4.58A4.7,4.7,0,0,1,734.68,674.87Z" transform="translate(0 -0.19)"/><path class="cls-17" d="M734.68,701.33a4.59,4.59,0,1,1,4.83-4.59A4.7,4.7,0,0,1,734.68,701.33Z" transform="translate(0 -0.19)"/><path class="cls-17" d="M734.68,727.79a4.59,4.59,0,1,1,4.83-4.58A4.7,4.7,0,0,1,734.68,727.79Z" transform="translate(0 -0.19)"/><path class="cls-17" d="M734.68,754.26a4.6,4.6,0,1,1,4.83-4.59A4.71,4.71,0,0,1,734.68,754.26Z" transform="translate(0 -0.19)"/><path class="cls-17" d="M734.68,780.71a4.59,4.59,0,1,1,4.83-4.58A4.7,4.7,0,0,1,734.68,780.71Z" transform="translate(0 -0.19)"/><path class="cls-17" d="M734.68,807.18a4.59,4.59,0,1,1,4.83-4.58A4.7,4.7,0,0,1,734.68,807.18Z" transform="translate(0 -0.19)"/><path class="cls-17" d="M734.68,833.64a4.59,4.59,0,1,1,4.83-4.59A4.7,4.7,0,0,1,734.68,833.64Z" transform="translate(0 -0.19)"/><path class="cls-17" d="M715.08,674.87a4.59,4.59,0,1,1,4.83-4.58A4.71,4.71,0,0,1,715.08,674.87Z" transform="translate(0 -0.19)"/><path class="cls-17" d="M715.08,701.33a4.59,4.59,0,1,1,4.83-4.59A4.71,4.71,0,0,1,715.08,701.33Z" transform="translate(0 -0.19)"/><path class="cls-17" d="M715.08,727.79a4.59,4.59,0,1,1,4.83-4.58A4.71,4.71,0,0,1,715.08,727.79Z" transform="translate(0 -0.19)"/><path class="cls-17" d="M715.08,754.26a4.6,4.6,0,1,1,4.83-4.59A4.72,4.72,0,0,1,715.08,754.26Z" transform="translate(0 -0.19)"/><path class="cls-17" d="M715.08,780.71a4.59,4.59,0,1,1,4.83-4.58A4.71,4.71,0,0,1,715.08,780.71Z" transform="translate(0 -0.19)"/><path class="cls-17" d="M715.08,807.18a4.59,4.59,0,1,1,4.83-4.58A4.71,4.71,0,0,1,715.08,807.18Z" transform="translate(0 -0.19)"/><path class="cls-17" d="M715.08,833.64a4.59,4.59,0,1,1,4.83-4.59A4.71,4.71,0,0,1,715.08,833.64Z" transform="translate(0 -0.19)"/><path class="cls-17" d="M695.47,674.87a4.59,4.59,0,1,1,4.83-4.58A4.71,4.71,0,0,1,695.47,674.87Z" transform="translate(0 -0.19)"/><path class="cls-17" d="M695.47,701.33a4.59,4.59,0,1,1,4.83-4.59A4.71,4.71,0,0,1,695.47,701.33Z" transform="translate(0 -0.19)"/><path class="cls-17" d="M695.47,727.79a4.59,4.59,0,1,1,4.83-4.58A4.71,4.71,0,0,1,695.47,727.79Z" transform="translate(0 -0.19)"/><path class="cls-17" d="M695.47,754.26a4.6,4.6,0,1,1,4.84-4.59A4.71,4.71,0,0,1,695.47,754.26Z" transform="translate(0 -0.19)"/><path class="cls-17" d="M695.47,780.71a4.59,4.59,0,1,1,4.83-4.58A4.71,4.71,0,0,1,695.47,780.71Z" transform="translate(0 -0.19)"/><path class="cls-17" d="M695.47,807.18a4.59,4.59,0,1,1,4.83-4.58A4.71,4.71,0,0,1,695.47,807.18Z" transform="translate(0 -0.19)"/><path class="cls-17" d="M695.47,833.64a4.59,4.59,0,1,1,4.83-4.59A4.71,4.71,0,0,1,695.47,833.64Z" transform="translate(0 -0.19)"/><path class="cls-17" d="M675.87,674.87a4.59,4.59,0,1,1,4.83-4.58A4.71,4.71,0,0,1,675.87,674.87Z" transform="translate(0 -0.19)"/><path class="cls-17" d="M675.87,701.33a4.59,4.59,0,1,1,4.83-4.59A4.72,4.72,0,0,1,675.87,701.33Z" transform="translate(0 -0.19)"/><path class="cls-17" d="M675.87,727.79a4.59,4.59,0,1,1,4.83-4.58A4.71,4.71,0,0,1,675.87,727.79Z" transform="translate(0 -0.19)"/><path class="cls-17" d="M675.87,754.26a4.6,4.6,0,1,1,4.83-4.59A4.72,4.72,0,0,1,675.87,754.26Z" transform="translate(0 -0.19)"/><path class="cls-17" d="M675.87,780.71a4.59,4.59,0,1,1,4.83-4.58A4.71,4.71,0,0,1,675.87,780.71Z" transform="translate(0 -0.19)"/><path class="cls-17" d="M675.87,807.18a4.59,4.59,0,1,1,4.83-4.58A4.71,4.71,0,0,1,675.87,807.18Z" transform="translate(0 -0.19)"/><path class="cls-17" d="M675.87,833.64a4.59,4.59,0,1,1,4.83-4.59A4.72,4.72,0,0,1,675.87,833.64Z" transform="translate(0 -0.19)"/><path class="cls-4" d="M334.76,667v166.7h3.72a3,3,0,1,1,2.8-3,2.92,2.92,0,0,1-2.8,3H355a3,3,0,1,1,2.81-3,2.92,2.92,0,0,1-2.81,3h16.48a3,3,0,1,1,2.81-3,2.91,2.91,0,0,1-2.81,3h16.48a3,3,0,1,1,2.81-3,2.91,2.91,0,0,1-2.81,3H404.4a3,3,0,1,1,2.81-3,2.91,2.91,0,0,1-2.81,3h16.48a3,3,0,1,1,2.81-3,2.91,2.91,0,0,1-2.81,3h16.49a3,3,0,1,1,2.8-3,2.92,2.92,0,0,1-2.8,3h16.48a3,3,0,1,1,2.8-3,2.92,2.92,0,0,1-2.8,3h16.48a3,3,0,1,1,2.8-3,2.92,2.92,0,0,1-2.8,3h16.48a3,3,0,1,1,2.8-3,2.91,2.91,0,0,1-2.8,3H502v-.34a3.08,3.08,0,0,1-.11-5.27c-.14-4.22-.43-8.41-.88-12.54a3.15,3.15,0,0,1-.55-1.78,3.09,3.09,0,0,1,.21-1.15,164.81,164.81,0,0,0-13.11-46.75,2.56,2.56,0,0,1-.78.14,2.91,2.91,0,0,1-2.8-3,3.06,3.06,0,0,1,1.12-2.39,167.31,167.31,0,0,0-32.74-45.42,2.75,2.75,0,0,1-.77-.75,167.43,167.43,0,0,0-61.69-38.15,3.12,3.12,0,0,1,.8,2.1c0,.07,0,.13,0,.2s0,.13,0,.21a2.81,2.81,0,1,1-5.61,0,1.06,1.06,0,0,0,0-.41,2.94,2.94,0,0,1,2.3-3A167.6,167.6,0,0,0,334.76,667ZM484,813.72a2.81,2.81,0,1,1,2.8,3A2.9,2.9,0,0,1,484,813.72Zm0-16.92a2.81,2.81,0,1,1,2.8,3A2.9,2.9,0,0,1,484,796.8Zm0-16.93a2.81,2.81,0,1,1,2.8,3A2.91,2.91,0,0,1,484,779.87Zm-16.49,33.85a2.81,2.81,0,1,1,2.81,3A2.91,2.91,0,0,1,467.52,813.72Zm0-16.92a2.81,2.81,0,1,1,2.81,3A2.91,2.91,0,0,1,467.52,796.8Zm0-16.93a2.81,2.81,0,1,1,2.81,3A2.92,2.92,0,0,1,467.52,779.87Zm0-16.92a2.81,2.81,0,1,1,2.81,3A2.91,2.91,0,0,1,467.52,763Zm0-16.72c0-.07,0-.13,0-.2a2.81,2.81,0,1,1,5.61,0,1.36,1.36,0,0,1,0,.2,1.49,1.49,0,0,1,0,.21,2.81,2.81,0,1,1-5.61,0C467.52,746.37,467.54,746.3,467.54,746.23ZM451,813.72a2.81,2.81,0,1,1,2.81,3A2.91,2.91,0,0,1,451,813.72Zm0-16.92a2.81,2.81,0,1,1,2.81,3A2.91,2.91,0,0,1,451,796.8Zm0-16.93a2.81,2.81,0,1,1,2.81,3A2.92,2.92,0,0,1,451,779.87ZM451,763a2.81,2.81,0,1,1,2.81,3A2.91,2.91,0,0,1,451,763Zm0-16.72c0-.07,0-.13,0-.2a2.81,2.81,0,1,1,5.61,0,1.36,1.36,0,0,1,0,.2,1.49,1.49,0,0,1,0,.21,2.81,2.81,0,1,1-5.61,0C451,746.37,451.06,746.3,451.06,746.23Zm0-16.92c0-.07,0-.14,0-.21a2.81,2.81,0,1,1,5.61,0,1.49,1.49,0,0,1,0,.21,1.36,1.36,0,0,1,0,.2,2.81,2.81,0,1,1-5.61,0C451,729.44,451.06,729.38,451.06,729.31Zm-16.5,84.41a2.81,2.81,0,1,1,2.81,3A2.91,2.91,0,0,1,434.56,813.72Zm0-16.92a2.81,2.81,0,1,1,2.81,3A2.91,2.91,0,0,1,434.56,796.8Zm0-16.93a2.81,2.81,0,1,1,2.81,3A2.92,2.92,0,0,1,434.56,779.87Zm0-16.92a2.81,2.81,0,1,1,2.81,3A2.91,2.91,0,0,1,434.56,763Zm0-16.72c0-.07,0-.13,0-.2a2.81,2.81,0,1,1,5.61,0,1.36,1.36,0,0,1,0,.2,1.49,1.49,0,0,1,0,.21,2.81,2.81,0,1,1-5.61,0C434.56,746.37,434.58,746.3,434.58,746.23Zm0-16.92c0-.07,0-.14,0-.21a2.81,2.81,0,1,1,5.61,0,1.49,1.49,0,0,1,0,.21,1.36,1.36,0,0,1,0,.2,2.81,2.81,0,1,1-5.61,0C434.56,729.44,434.58,729.38,434.58,729.31Zm0-16.93c0-.07,0-.13,0-.2a2.81,2.81,0,1,1,5.61,0,1.36,1.36,0,0,1,0,.2,1.49,1.49,0,0,1,0,.21,2.81,2.81,0,1,1-5.61,0C434.56,712.52,434.58,712.45,434.58,712.38Zm-16.5,101.34a2.81,2.81,0,1,1,2.8,3A2.91,2.91,0,0,1,418.08,813.72Zm0-16.92a2.81,2.81,0,1,1,2.8,3A2.91,2.91,0,0,1,418.08,796.8Zm0-16.93a2.81,2.81,0,1,1,2.8,3A2.91,2.91,0,0,1,418.08,779.87Zm0-16.92a2.81,2.81,0,1,1,2.8,3A2.91,2.91,0,0,1,418.08,763Zm0-16.72c0-.07,0-.13,0-.2a2.81,2.81,0,1,1,5.61,0c0,.07,0,.13,0,.2s0,.14,0,.21a2.81,2.81,0,1,1-5.61,0C418.08,746.37,418.1,746.3,418.1,746.23Zm0-16.92c0-.07,0-.14,0-.21a2.81,2.81,0,1,1,5.61,0c0,.07,0,.14,0,.21s0,.13,0,.2a2.81,2.81,0,1,1-5.61,0C418.08,729.44,418.1,729.38,418.1,729.31Zm0-16.93c0-.07,0-.13,0-.2a2.81,2.81,0,1,1,5.61,0c0,.07,0,.13,0,.2s0,.14,0,.21a2.81,2.81,0,1,1-5.61,0C418.08,712.52,418.1,712.45,418.1,712.38Zm0-16.92c0-.07,0-.14,0-.21a2.81,2.81,0,1,1,5.61,0c0,.07,0,.14,0,.21s0,.13,0,.2a2.81,2.81,0,1,1-5.61,0C418.08,695.59,418.1,695.53,418.1,695.46ZM401.6,813.72a2.81,2.81,0,1,1,2.8,3A2.91,2.91,0,0,1,401.6,813.72Zm0-16.92a2.81,2.81,0,1,1,2.8,3A2.91,2.91,0,0,1,401.6,796.8Zm0-16.93a2.81,2.81,0,1,1,2.8,3A2.91,2.91,0,0,1,401.6,779.87Zm0-16.08c0-1.2,1.26-2.17,2.8-2.17s2.81,1,2.81,2.17S406,766,404.4,766,401.6,765,401.6,763.79Zm0-17.56a1.36,1.36,0,0,1,0-.2,2.81,2.81,0,1,1,5.61,0c0,.07,0,.13,0,.2s0,.14,0,.21a2.81,2.81,0,1,1-5.61,0A1.49,1.49,0,0,1,401.62,746.23Zm0-16.92a1.49,1.49,0,0,1,0-.21,2.81,2.81,0,1,1,5.61,0c0,.07,0,.14,0,.21s0,.13,0,.2a2.81,2.81,0,1,1-5.61,0A1.36,1.36,0,0,1,401.62,729.31Zm0-16.93a1.36,1.36,0,0,1,0-.2,2.81,2.81,0,1,1,5.61,0c0,.07,0,.13,0,.2s0,.14,0,.21a2.81,2.81,0,1,1-5.61,0A1.49,1.49,0,0,1,401.62,712.38Zm0-16.92a1.49,1.49,0,0,1,0-.21,2.81,2.81,0,1,1,5.61,0c0,.07,0,.14,0,.21s0,.13,0,.2a2.81,2.81,0,1,1-5.61,0A1.36,1.36,0,0,1,401.62,695.46Zm-16.5,118.26a2.81,2.81,0,1,1,2.8,3A2.9,2.9,0,0,1,385.12,813.72Zm0-16.92a2.81,2.81,0,1,1,2.8,3A2.9,2.9,0,0,1,385.12,796.8Zm0-16.93a2.81,2.81,0,1,1,2.8,3A2.91,2.91,0,0,1,385.12,779.87Zm0-16.92a2.81,2.81,0,1,1,2.8,3A2.9,2.9,0,0,1,385.12,763Zm0-16.72a1.36,1.36,0,0,1,0-.2,2.81,2.81,0,1,1,5.61,0c0,.07,0,.13,0,.2s0,.14,0,.21a2.81,2.81,0,1,1-5.61,0A1.49,1.49,0,0,1,385.14,746.23Zm0-16.92a1.49,1.49,0,0,1,0-.21,2.81,2.81,0,1,1,5.61,0c0,.07,0,.14,0,.21s0,.13,0,.2a2.81,2.81,0,1,1-5.61,0A1.36,1.36,0,0,1,385.14,729.31Zm0-16.93a1.36,1.36,0,0,1,0-.2,2.81,2.81,0,1,1,5.61,0c0,.07,0,.13,0,.2s0,.14,0,.21a2.81,2.81,0,1,1-5.61,0A1.49,1.49,0,0,1,385.14,712.38Zm0-16.92a1.49,1.49,0,0,1,0-.21,2.81,2.81,0,1,1,5.61,0c0,.07,0,.14,0,.21s0,.13,0,.2a2.81,2.81,0,1,1-5.61,0A1.36,1.36,0,0,1,385.14,695.46Zm-16.5,118.26a2.81,2.81,0,1,1,2.8,3A2.9,2.9,0,0,1,368.64,813.72Zm0-16.92a2.81,2.81,0,1,1,2.8,3A2.9,2.9,0,0,1,368.64,796.8Zm0-16.93a2.81,2.81,0,1,1,2.8,3A2.91,2.91,0,0,1,368.64,779.87Zm0-16.92a2.81,2.81,0,1,1,2.8,3A2.9,2.9,0,0,1,368.64,763Zm0-16.72a1.36,1.36,0,0,1,0-.2,2.81,2.81,0,1,1,5.61,0c0,.07,0,.13,0,.2s0,.14,0,.21a2.81,2.81,0,1,1-5.61,0A1.49,1.49,0,0,1,368.66,746.23Zm0-16.92a1.49,1.49,0,0,1,0-.21,2.81,2.81,0,1,1,5.61,0c0,.07,0,.14,0,.21s0,.13,0,.2a2.81,2.81,0,1,1-5.61,0A1.36,1.36,0,0,1,368.66,729.31Zm0-16.93a1.36,1.36,0,0,1,0-.2,2.81,2.81,0,1,1,5.61,0c0,.07,0,.13,0,.2s0,.14,0,.21a2.81,2.81,0,1,1-5.61,0A1.49,1.49,0,0,1,368.66,712.38Zm0-16.92a1.49,1.49,0,0,1,0-.21,2.81,2.81,0,1,1,5.61,0c0,.07,0,.14,0,.21s0,.13,0,.2a2.81,2.81,0,1,1-5.61,0A1.36,1.36,0,0,1,368.66,695.46Zm0-16.92a1.36,1.36,0,0,1,0-.2,2.81,2.81,0,1,1,5.61,0c0,.07,0,.13,0,.2s0,.13,0,.21a2.81,2.81,0,1,1-5.61,0A1.36,1.36,0,0,1,368.66,678.54ZM352.15,812.76c0-1.13,1.26-2,2.81-2s2.81.91,2.81,2-1.26,2-2.81,2S352.15,813.89,352.15,812.76Zm0-16a2.82,2.82,0,1,1,2.81,3A2.91,2.91,0,0,1,352.15,796.8Zm0-16.93a2.82,2.82,0,1,1,2.81,3A2.92,2.92,0,0,1,352.15,779.87Zm0-16.92a2.82,2.82,0,1,1,2.81,3A2.91,2.91,0,0,1,352.15,763Zm0-16.72c0-.07,0-.13,0-.2a2.82,2.82,0,1,1,5.62,0c0,.07,0,.13,0,.2s0,.14,0,.21a2.82,2.82,0,1,1-5.62,0C352.15,746.37,352.17,746.3,352.17,746.23Zm0-16.92c0-.07,0-.14,0-.21a2.82,2.82,0,1,1,5.62,0c0,.07,0,.14,0,.21s0,.13,0,.2a2.82,2.82,0,1,1-5.62,0C352.15,729.44,352.17,729.38,352.17,729.31Zm0-16.93c0-.07,0-.13,0-.2a2.82,2.82,0,1,1,5.62,0c0,.07,0,.13,0,.2s0,.14,0,.21a2.82,2.82,0,1,1-5.62,0C352.15,712.52,352.17,712.45,352.17,712.38Zm0-16.92c0-.07,0-.14,0-.21a2.82,2.82,0,1,1,5.62,0c0,.07,0,.14,0,.21s0,.13,0,.2a2.82,2.82,0,1,1-5.62,0C352.15,695.59,352.17,695.53,352.17,695.46Zm0-16.92c0-.07,0-.13,0-.2a2.82,2.82,0,1,1,5.62,0c0,.07,0,.13,0,.2s0,.13,0,.21a2.82,2.82,0,1,1-5.62,0C352.15,678.67,352.17,678.61,352.17,678.54Zm-16.5,135.18a2.81,2.81,0,1,1,2.81,3A2.91,2.91,0,0,1,335.67,813.72Zm0-16.92a2.81,2.81,0,1,1,2.81,3A2.91,2.91,0,0,1,335.67,796.8Zm0-16.93a2.81,2.81,0,1,1,2.81,3A2.92,2.92,0,0,1,335.67,779.87Zm0-16.92a2.81,2.81,0,1,1,2.81,3A2.91,2.91,0,0,1,335.67,763Zm0-16.72c0-.07,0-.13,0-.2a2.81,2.81,0,1,1,5.61,0,1.36,1.36,0,0,1,0,.2,1.49,1.49,0,0,1,0,.21,2.81,2.81,0,1,1-5.61,0C335.67,746.37,335.69,746.3,335.69,746.23Zm0-16.92c0-.07,0-.14,0-.21a2.81,2.81,0,1,1,5.61,0,1.49,1.49,0,0,1,0,.21,1.36,1.36,0,0,1,0,.2,2.81,2.81,0,1,1-5.61,0C335.67,729.44,335.69,729.38,335.69,729.31Zm0-16.93c0-.07,0-.13,0-.2a2.81,2.81,0,1,1,5.61,0,1.36,1.36,0,0,1,0,.2,1.49,1.49,0,0,1,0,.21,2.81,2.81,0,1,1-5.61,0C335.67,712.52,335.69,712.45,335.69,712.38Zm0-16.92c0-.07,0-.14,0-.21a2.81,2.81,0,1,1,5.61,0,1.49,1.49,0,0,1,0,.21,1.36,1.36,0,0,1,0,.2,2.81,2.81,0,1,1-5.61,0C335.67,695.59,335.69,695.53,335.69,695.46Zm0-16.92c0-.07,0-.13,0-.2a2.81,2.81,0,1,1,5.61,0,1.06,1.06,0,0,0,0,.41,2.81,2.81,0,1,1-5.61,0C335.67,678.67,335.69,678.61,335.69,678.54Z" transform="translate(0 -0.19)"/><path class="cls-5" d="M837.23,419.13a2.37,2.37,0,1,1-2.5,2.36A2.43,2.43,0,0,1,837.23,419.13Z" transform="translate(0 -0.19)"/><path class="cls-5" d="M837.22,405.48a2.37,2.37,0,1,1-2.49,2.36A2.43,2.43,0,0,1,837.22,405.48Z" transform="translate(0 -0.19)"/><path class="cls-5" d="M837.22,391.83a2.37,2.37,0,1,1-2.49,2.36A2.43,2.43,0,0,1,837.22,391.83Z" transform="translate(0 -0.19)"/><path class="cls-5" d="M837.22,378.17a2.37,2.37,0,1,1-2.49,2.37A2.44,2.44,0,0,1,837.22,378.17Z" transform="translate(0 -0.19)"/><path class="cls-5" d="M837.22,364.52a2.37,2.37,0,1,1-2.49,2.37A2.44,2.44,0,0,1,837.22,364.52Z" transform="translate(0 -0.19)"/><path class="cls-5" d="M837.22,350.87a2.37,2.37,0,1,1-2.49,2.37A2.44,2.44,0,0,1,837.22,350.87Z" transform="translate(0 -0.19)"/><path class="cls-5" d="M837.22,337.22a2.37,2.37,0,1,1-2.49,2.37A2.44,2.44,0,0,1,837.22,337.22Z" transform="translate(0 -0.19)"/><path class="cls-5" d="M847.36,419.13a2.37,2.37,0,1,1-2.5,2.36A2.44,2.44,0,0,1,847.36,419.13Z" transform="translate(0 -0.19)"/><path class="cls-5" d="M847.36,405.48a2.37,2.37,0,1,1-2.5,2.36A2.43,2.43,0,0,1,847.36,405.48Z" transform="translate(0 -0.19)"/><path class="cls-5" d="M847.36,391.83a2.37,2.37,0,1,1-2.5,2.36A2.43,2.43,0,0,1,847.36,391.83Z" transform="translate(0 -0.19)"/><path class="cls-5" d="M847.36,378.17a2.37,2.37,0,1,1-2.5,2.37A2.44,2.44,0,0,1,847.36,378.17Z" transform="translate(0 -0.19)"/><path class="cls-5" d="M847.36,364.52a2.37,2.37,0,1,1-2.5,2.37A2.44,2.44,0,0,1,847.36,364.52Z" transform="translate(0 -0.19)"/><path class="cls-5" d="M847.36,350.87a2.37,2.37,0,1,1-2.5,2.37A2.44,2.44,0,0,1,847.36,350.87Z" transform="translate(0 -0.19)"/><path class="cls-5" d="M847.36,337.22a2.37,2.37,0,1,1-2.5,2.37A2.44,2.44,0,0,1,847.36,337.22Z" transform="translate(0 -0.19)"/><path class="cls-5" d="M857.49,419.13a2.37,2.37,0,1,1-2.49,2.36A2.44,2.44,0,0,1,857.49,419.13Z" transform="translate(0 -0.19)"/><path class="cls-5" d="M857.49,405.48a2.37,2.37,0,1,1-2.49,2.36A2.43,2.43,0,0,1,857.49,405.48Z" transform="translate(0 -0.19)"/><path class="cls-5" d="M857.49,391.83a2.37,2.37,0,1,1-2.49,2.36A2.43,2.43,0,0,1,857.49,391.83Z" transform="translate(0 -0.19)"/><path class="cls-5" d="M857.49,378.17a2.37,2.37,0,1,1-2.5,2.37A2.44,2.44,0,0,1,857.49,378.17Z" transform="translate(0 -0.19)"/><path class="cls-5" d="M857.49,364.52a2.37,2.37,0,1,1-2.5,2.37A2.44,2.44,0,0,1,857.49,364.52Z" transform="translate(0 -0.19)"/><path class="cls-5" d="M857.49,350.87a2.37,2.37,0,1,1-2.5,2.37A2.44,2.44,0,0,1,857.49,350.87Z" transform="translate(0 -0.19)"/><path class="cls-5" d="M857.49,337.22a2.37,2.37,0,1,1-2.5,2.37A2.44,2.44,0,0,1,857.49,337.22Z" transform="translate(0 -0.19)"/><path class="cls-5" d="M867.63,419.13a2.37,2.37,0,1,1-2.5,2.36A2.44,2.44,0,0,1,867.63,419.13Z" transform="translate(0 -0.19)"/><path class="cls-5" d="M867.63,405.48a2.37,2.37,0,1,1-2.5,2.36A2.42,2.42,0,0,1,867.63,405.48Z" transform="translate(0 -0.19)"/><path class="cls-5" d="M867.63,391.83a2.36,2.36,0,1,1-2.5,2.36A2.42,2.42,0,0,1,867.63,391.83Z" transform="translate(0 -0.19)"/><path class="cls-5" d="M867.63,378.17a2.37,2.37,0,1,1-2.5,2.37A2.43,2.43,0,0,1,867.63,378.17Z" transform="translate(0 -0.19)"/><path class="cls-5" d="M867.63,364.52a2.37,2.37,0,1,1-2.5,2.37A2.43,2.43,0,0,1,867.63,364.52Z" transform="translate(0 -0.19)"/><path class="cls-5" d="M867.63,350.87a2.37,2.37,0,1,1-2.5,2.36A2.43,2.43,0,0,1,867.63,350.87Z" transform="translate(0 -0.19)"/><path class="cls-5" d="M867.63,337.22a2.37,2.37,0,1,1-2.5,2.37A2.43,2.43,0,0,1,867.63,337.22Z" transform="translate(0 -0.19)"/><path class="cls-5" d="M877.76,364.52a2.37,2.37,0,1,1-2.49,2.37A2.44,2.44,0,0,1,877.76,364.52Z" transform="translate(0 -0.19)"/><path class="cls-5" d="M877.76,350.87a2.37,2.37,0,1,1-2.49,2.36A2.43,2.43,0,0,1,877.76,350.87Z" transform="translate(0 -0.19)"/><path class="cls-5" d="M877.76,337.22a2.37,2.37,0,1,1-2.5,2.37A2.43,2.43,0,0,1,877.76,337.22Z" transform="translate(0 -0.19)"/><path class="cls-5" d="M887.89,364.52a2.37,2.37,0,1,1-2.49,2.37A2.44,2.44,0,0,1,887.89,364.52Z" transform="translate(0 -0.19)"/><path class="cls-5" d="M887.89,350.87a2.37,2.37,0,1,1-2.49,2.36A2.44,2.44,0,0,1,887.89,350.87Z" transform="translate(0 -0.19)"/><path class="cls-5" d="M887.89,337.22a2.37,2.37,0,1,1-2.49,2.37A2.44,2.44,0,0,1,887.89,337.22Z" transform="translate(0 -0.19)"/><path class="cls-5" d="M898,364.52a2.37,2.37,0,1,1-2.5,2.37A2.44,2.44,0,0,1,898,364.52Z" transform="translate(0 -0.19)"/><path class="cls-5" d="M898,350.87a2.37,2.37,0,1,1-2.5,2.36A2.43,2.43,0,0,1,898,350.87Z" transform="translate(0 -0.19)"/><path class="cls-5" d="M898,337.22a2.37,2.37,0,1,1-2.5,2.37A2.43,2.43,0,0,1,898,337.22Z" transform="translate(0 -0.19)"/><path class="cls-5" d="M908.16,364.52a2.37,2.37,0,1,1-2.49,2.37A2.44,2.44,0,0,1,908.16,364.52Z" transform="translate(0 -0.19)"/><path class="cls-5" d="M908.16,350.87a2.37,2.37,0,1,1-2.49,2.36A2.44,2.44,0,0,1,908.16,350.87Z" transform="translate(0 -0.19)"/><path class="cls-5" d="M908.16,337.22a2.37,2.37,0,1,1-2.49,2.36A2.44,2.44,0,0,1,908.16,337.22Z" transform="translate(0 -0.19)"/><path class="cls-5" d="M918.3,364.52a2.37,2.37,0,1,1-2.5,2.37A2.43,2.43,0,0,1,918.3,364.52Z" transform="translate(0 -0.19)"/><path class="cls-5" d="M918.3,350.87a2.37,2.37,0,1,1-2.5,2.36A2.43,2.43,0,0,1,918.3,350.87Z" transform="translate(0 -0.19)"/><path class="cls-5" d="M918.29,337.22a2.37,2.37,0,1,1-2.49,2.36A2.44,2.44,0,0,1,918.29,337.22Z" transform="translate(0 -0.19)"/><rect class="cls-15" x="883.47" y="382.35" width="96.03" height="96.01" transform="translate(1361.83 -501.32) rotate(90)"/><path class="cls-4" d="M769.09,596.75h0a22.71,22.71,0,0,1,32.1,0h0a22.72,22.72,0,0,1,0,32.11h0a22.69,22.69,0,0,1-32.1,0h0A22.72,22.72,0,0,1,769.09,596.75Z" transform="translate(0 -0.19)"/><path class="cls-4" d="M779.42,234.23V207H718.57v60.84h18.18v27.22h60.84V234.23ZM725,261.46V213.39H773v20.84H736.75v27.23ZM773,240.62v20.84H743.14V240.62Zm18.18,48.06H743.14V267.85h36.28V240.62h11.79Z" transform="translate(0 -0.19)"/><path class="cls-4" d="M557.61,440.8V552H668.83V440.8Zm55.61,2.66a13.91,13.91,0,1,1-14,13.91A14,14,0,0,1,613.22,443.46Zm0,105.91c-17.05,0-30.93-14.62-30.93-32.57s13.88-32.56,30.93-32.56,30.94,14.61,30.94,32.56S630.28,549.37,613.22,549.37Z" transform="translate(0 -0.19)"/><path class="cls-4" d="M613.22,491.07c-13.47,0-24.43,11.55-24.43,25.73s11,25.73,24.43,25.73S637.66,531,637.66,516.8,626.7,491.07,613.22,491.07Z" transform="translate(0 -0.19)"/></g></g></svg>