<svg xmlns="http://www.w3.org/2000/svg" viewBox="0 0 646.07 267.17"><defs><style>.cls-1{fill:none;stroke-width:5px;}.cls-1,.cls-2{stroke:#000;stroke-miterlimit:10;}.cls-2{font-size:77.5px;font-family:Attentica4F-UltraLight, "Attentica 4F";font-weight:100;letter-spacing:0.06em;}.cls-3{letter-spacing:0.04em;}.cls-4{font-size:87.17px;letter-spacing:0.06em;}</style></defs><g id="Calque_2" data-name="Calque 2"><g id="Calque_1-2" data-name="Calque 1"><g id="blanc_sur_noir" data-name="blanc sur noir"><circle class="cls-1" cx="133.58" cy="133.58" r="131.08"/><path class="cls-1" d="M117.26,181.31c0,12.62,4.69,23.52,14,32.56a47.49,47.49,0,0,0,33.89,13.42c13.77,0,25.2-4,34.29-12.09s13.64-19.41,13.64-33.89l-1.2-46.8M123.46,42.64l88.47,92.05v-92Z"/><line class="cls-1" x1="117.26" y1="181.31" x2="117.26" y2="160.88"/><path class="cls-1" d="M55.92,156.54H99.84c15.09,0,27.85-5.6,38.52-16.93s15.95-24.88,15.95-40.9S149,69,138.36,57.69,115.52,40.76,99.84,40.76H55.92Zm0-115.78V225.67"/><path class="cls-1" d="M54,225.67h56.05c18.61,0,34.34-6,47.51-18.08s19.66-26.55,19.66-43.66-6.5-31.7-19.66-43.79-28.17-18.08-47.51-18.08H55.92"/></g><text class="cls-2" transform="translate(292.8 134.69) scale(1.03 1)">JENNNIFER <tspan class="cls-3" x="220.41" y="0">P</tspan><tspan x="243.42" y="0">AOLA</tspan><tspan class="cls-4"><tspan x="0" y="76.15">BORUCHOWITCH</tspan></tspan></text></g></g></svg>